<svg xmlns="http://www.w3.org/2000/svg" xmlns:xlink="http://www.w3.org/1999/xlink" width="80vw" viewBox="0 0 1280 800">
  <defs>
    <clipPath id="clip-Web_1280_1">
      <rect width="1280" height="800"/>
    </clipPath>
  </defs>
  <g id="Web_1280_1" data-name="Web 1280 – 1" clip-path="url(#clip-Web_1280_1)">
    <rect width="1280" height="800" fill="#fff"/>
    <rect id="Rectangle_1" data-name="Rectangle 1" width="1280" height="800" fill="#262626"/>
    <text id="Hulkpecs_Oneliners_Bigspandexguys_Deadpool_Avengers" data-name="Hulkpecs
Oneliners
Bigspandexguys
Deadpool
Avengers" transform="translate(99 224)" fill="#e7d503" font-size="80" font-family="Marvel-Regular, Marvel"><tspan x="0" y="0">HULKPECS</tspan><tspan x="0" y="104">ONELINERS</tspan><tspan x="0" y="208">BIGSPANDEXGUYS</tspan><tspan x="0" y="312">DEADPOOL</tspan><tspan x="0" y="416">AVENGERS</tspan></text>
    <rect id="Rectangle_2" data-name="Rectangle 2" width="42" height="800" transform="translate(860)" fill="#e7d503"/>
    <g id="_3322007" data-name="3322007" transform="translate(598.958 1428.44)">
      <path id="Path_1" data-name="Path 1" d="M415.536-1278.472a9.408,9.408,0,0,0-2.222,4.027c-.417,1.389-1.2,4.12-1.713,6.018a48.07,48.07,0,0,1-3.24,7.638,66.2,66.2,0,0,0-3.472,7.869c-1.435,4.351-5.694,12.591-9.35,18.238-4.907,7.545-10.924,14.072-19.812,21.432-8.054,6.712-11.063,11.48-15.461,24.487l-2.453,7.175-3.657,3.24c-3.935,3.425-11.387,8.471-18.932,12.869-5.694,3.287-6.619,4.444-6.342,8.24.231,4.259,2.916,9.026,7.684,13.841a25.624,25.624,0,0,0,7.5,5.694,22.241,22.241,0,0,0,4.166,1.667,6.288,6.288,0,0,1,2.176.926c1.713,1.065,1.944,2.407.741,4.721-1.111,2.176-1.528,3.842-2.037,8.471-.417,3.7-.833,4.907-3.749,11.017-4.166,8.749-5.508,12.359-5.508,14.72,0,2.777-1.018,4.4-3.1,4.907-1.528.37-1.805.648-2.777,3.1a17.106,17.106,0,0,1-3.333,5.138c-2.407,2.546-3.24,4.073-4.166,7.869-.88,3.564-2.824,6.157-9.3,12.452a70.642,70.642,0,0,1-20.136,14.165c-10.276,5.046-25.876,10.6-32.912,11.85a205.723,205.723,0,0,0-21.71,5.555c-1.759.648-6.249,1.99-9.952,3.009-3.7.972-8.564,2.407-10.878,3.148a51.9,51.9,0,0,1-7.453,1.9,58.164,58.164,0,0,0-8.1,1.991,102.625,102.625,0,0,1-10.369,2.638c-8.378,1.574-12.406,2.592-16.849,4.351a54.211,54.211,0,0,1-7.082,2.314,33.315,33.315,0,0,0-12.869,6.342c-2.176,1.62-5.323,3.749-7.036,4.768-2.963,1.713-4.629,3.009-14.118,10.924-2.268,1.9-5.462,4.444-7.129,5.6a19.165,19.165,0,0,0-4.814,4.86,75.024,75.024,0,0,1-6.712,7.823c-6.388,6.666-8.841,10.184-11.9,17.035-1.389,3.1-3.657,7.545-5.046,9.86-2.129,3.61-2.546,4.675-2.777,7.175a31.751,31.751,0,0,1-2.222,9.86c-.648,1.62-1.574,4.629-2.129,6.619a40.823,40.823,0,0,1-3.425,7.777c-1.342,2.268-3.009,5.184-3.749,6.434a22.94,22.94,0,0,1-3.24,4.166,34.947,34.947,0,0,0-4.073,5.046c-1.805,2.639-5.323,7.175-15.97,20.6a18.03,18.03,0,0,1-3.7,3.333c-3.148,1.944-9.073,8.1-12.128,12.544-3.1,4.49-4.814,6.156-7.869,7.5-3.148,1.389-4.536,2.5-4.86,3.981-.324,1.62-1.805,3.009-6.018,5.694-2.731,1.759-3.472,2.453-4.583,4.768-1.759,3.472-5.74,7.73-8.332,8.98a3.936,3.936,0,0,0-2.592,2.546,28.073,28.073,0,0,1-2.407,4.536c-3.24,4.953-6.9,12.452-7.406,15.137a11.422,11.422,0,0,1-.926,3.1A9.469,9.469,0,0,0,3-801.782a19.07,19.07,0,0,1-1.62,5.277c-1.666,3.518-1.62,5.323.093,8.934,1.157,2.453,1.666,3.009,3.333,3.749a22.266,22.266,0,0,1,4.536,2.916c3.055,2.5,4.768,3.425,7.082,3.842,1.528.278,1.852.185,3.055-1.111,2.222-2.407,4.629-1.759,6.064,1.62,1.157,2.685,3.472,12.22,4.351,18.007,2.037,13.517,2.824,17.683,4.3,23.376,2.361,8.888,2.777,11.526,3.564,22.451a92.678,92.678,0,0,0,1.2,11.109,14.974,14.974,0,0,0,2.268,3.472,37.9,37.9,0,0,1,2.916,4.166,25.085,25.085,0,0,0,3.472,4.259l2.222,2.176,6.527-1.574a61.265,61.265,0,0,0,8.193-2.361c1.574-.741,1.713-.741,3.888.185,3.981,1.666,6.018,1.713,9.165.093a10.5,10.5,0,0,1,5.416-1.389,6.142,6.142,0,0,0,2.87-.417c.787-1.2-4.536-5.138-17.636-13.007a54,54,0,0,1-7.36-5.323,8.92,8.92,0,0,1-3.1-5.323c-.833-3.333-3.749-27.4-4.536-37.31l-.509-6.249,1.2-2.453c2.083-4.212,19.21-21.293,25.968-25.876,2.592-1.759,11.2-5.879,12.267-5.879a37.172,37.172,0,0,0,4.907-3.148c2.407-1.713,7.545-4.86,11.434-6.99,3.842-2.129,10.184-5.647,14.072-7.777a121.772,121.772,0,0,1,12.961-6.11c10.693-4.073,18.7-7.916,26.246-12.73a56.858,56.858,0,0,1,8.24-4.027c5.6-2.129,8.24-3.61,11.248-6.434,3.472-3.194,4.86-4.166,6.064-4.166,1.528,0,2.129,1.481,2.176,5.277,0,6.064-4.536,16.711-12.683,29.764-1.62,2.639-3.981,6.573-5.277,8.8a33.338,33.338,0,0,1-5.416,7.082c-3.981,3.842-5.092,6.3-5.37,11.619-.139,3.148-.046,4.3.6,5.555.463.88,5.046,5.832,10.137,11.063,12.174,12.359,15.229,16.664,16.063,22.543.509,3.564,1.944,6.48,4.768,9.813,2.963,3.379,4.259,5.786,5.046,9.119.787,3.564,2.731,6.9,4.583,8.054,1.666,1.018,2.176,1.111,12.637,2.315a69.764,69.764,0,0,1,10.647,1.852c3.1,1.065,4.953.88,5.971-.556.6-.88,1.018-.926,3.518-.694,2.546.278,2.87.231,3.749-.787,1.065-1.2,2.268-1.805,5.416-2.592,1.065-.278,1.944-.741,1.944-1.065,0-1.157-7.777-7.869-11.109-9.582a36.273,36.273,0,0,0-7.036-1.852c-6.851-1.157-8.193-1.574-10.508-3.286-6.018-4.351-17.173-18.886-20.367-26.478-.787-1.944-2.407-5.555-3.564-8.054-2.592-5.555-2.87-7.823-1.805-13.887,1.574-8.8,3.8-13.007,10.415-19.627,4.351-4.4,8.147-6.99,23.145-15.924,13.517-8.008,15.785-9.582,18.284-12.544a10.607,10.607,0,0,1,2.639-2.5c.833,0,7.36-3.981,10.137-6.2a17.935,17.935,0,0,0,4.166-4.675c.879-1.481,2.916-4.351,4.536-6.434,6.156-7.777,10.091-15.183,11.572-21.8,1.3-6.018,3.379-11.619,4.212-11.48a19.147,19.147,0,0,1,1.944.417c1.065.231,1.62-.093,3.842-2.176,2.639-2.5,3.24-2.546,3.564-.417a2.472,2.472,0,0,0,1.481,1.805c1.713.787,6.11.88,6.851.139a3.954,3.954,0,0,1,2.268-.556c1.852,0,2.5-.509,2.963-2.407.37-1.481,1.805-2.916,2.546-2.453a5.877,5.877,0,0,1,1.157,1.9c.741,1.805,1.3,1.944,2.222.6.694-.926.741-.926,1.9-.139,1.018.648,1.852.741,4.351.463,1.713-.139,3.657-.417,4.3-.555.926-.185,1.574.093,2.963,1.389,1.574,1.481,1.99,1.666,4.3,1.666a18.165,18.165,0,0,0,6.666-1.62c5-1.99,9.675-3.148,11.2-2.731a4.139,4.139,0,0,1,1.9,1.111c.648.694.648,1.018.231,1.852a4.356,4.356,0,0,0-.324,2.5c.324,2.268,2.916,8.564,4.583,11.109.787,1.3,2.685,4.629,4.12,7.406a51.275,51.275,0,0,0,3.8,6.249c1.574,1.62,6.018,10.647,7.221,14.581a83.126,83.126,0,0,1,1.9,8.563c1.3,7.406,2.083,9.628,3.7,10.461,1.389.741,6.943,8.564,6.943,9.813a10.825,10.825,0,0,0,1.389,3.194,15.64,15.64,0,0,1,1.666,4.351,16.63,16.63,0,0,0,2.176,4.768,26.111,26.111,0,0,1,2.5,4.953,17.589,17.589,0,0,0,2.592,4.629c2.824,3.657,4.907,7.221,8.564,14.674a59.765,59.765,0,0,1,5.138,13.331,36.278,36.278,0,0,0,3.055,6.249c3.564,6.11,6.434,11.85,7.36,14.72.972,2.87,2.638,4.3,6.481,5.694,6.851,2.407,23.145,3.935,37.541,3.518,7.591-.185,9.165-.37,11.48-1.25,2.685-1.018,2.731-1.018,5.555-.185a30.589,30.589,0,0,0,8.193.833c5.786.046,8.332-.555,9.489-2.176.833-1.2.88-2.176.139-2.176a50.731,50.731,0,0,1-6.851-4.675c-5.786-4.3-8.193-5.694-17.821-10.137-2.592-1.25-4.212-2.5-8.147-6.434-7.267-7.221-8.749-10.693-9.675-22.589-.555-6.99-1.111-10.23-2.314-14.072-1.805-5.6-2.916-14.257-3.7-29.348a366.945,366.945,0,0,0-3.935-37.818,270.819,270.819,0,0,1-2.87-46.891c.6-20.738,3.1-27.589,14.026-38.42,6.11-6.018,8.61-9.489,9.489-13.007a24.351,24.351,0,0,1,2.083-5.046c1.111-2.083,1.852-4.49,2.916-9.628.879-4.536,1.759-7.5,2.546-8.841a12.732,12.732,0,0,0,1.481-5.138c.231-2.315.6-3.425,1.481-4.49,1.018-1.2,1.2-2.037,1.528-6.3a85.2,85.2,0,0,1,3.472-18.238c1.342-4.027,1.99-11.341,2.037-23.515,0-4.444.231-12.406.509-17.636.509-9.027.463-9.767-.509-14.72a33.273,33.273,0,0,1-.694-10.184c.324-4.536.231-5.138-.648-6.9a20.677,20.677,0,0,1-1.481-6.666,74.315,74.315,0,0,0-3.518-16.572c-1.018-2.731-1.2-4.073-1.574-13.656-.463-11.295-.555-12.035-2.5-20.969-1.2-5.74-1.944-7.916-5.046-15.414-3.009-7.175-3.055-11.758-.324-23.238,3.1-12.961,6.851-24.58,10.6-32.958,1.25-2.823,2.546-5.925,2.87-6.9.787-2.407.324-7.916-.833-10.647-1.065-2.361-3.472-4.166-4.953-3.7-1.666.555-4.536,2.824-10.091,7.962-2.963,2.777-6.018,5.323-6.8,5.647-3.981,1.667-5.231-.972-7.175-15.414-.88-6.619-2.407-11.619-4.722-15.553-2.268-3.842-7.591-9.536-12.359-13.1-3.842-2.87-9.489-5.925-11.063-5.925A5.035,5.035,0,0,0,415.536-1278.472Z" transform="translate(0)" fill="#ccc"/>
    </g>
    <g id="Group_3" data-name="Group 3">
      <path id="Path_6" data-name="Path 6" d="M200.964,197.776l8.584-27.04-4.644-1.2c-.12-.026-12.431-3.176-28.615-6.278-21.822-4.179-39.973-6.3-53.938-6.3-16.218,0-26.469,2.91-31.359,8.9-1.953,2.4-4.026,6.557-2.757,12.71,2.232,10.863.226,25.393-1.893,40.773C84.653,231.561,82.912,244.2,83.185,256c.319,13.906,3.481,24.6,9.66,32.7,7.627,9.992,19.553,15.918,36.455,18.125a120.674,120.674,0,0,0,15.48,1.063c21.808,0,38.172-7.083,48.636-21.054,5.641-7.528,9.5-17.042,11.474-28.29a121.9,121.9,0,0,0,1.209-29.385A175.1,175.1,0,0,0,200.964,197.776Z" transform="translate(667.578 313.851) rotate(-16)" fill="#747474"/>
      <rect id="Rectangle_3" data-name="Rectangle 3" width="9.069" height="33.034" transform="translate(858.056 475.691) rotate(-16)" fill="#f6bb42"/>
      <path id="Path_7" data-name="Path 7" d="M206.849,341.032H179.643l-9.069,9.069v36.275h45.341V350.1Zm0,36.275H179.643V353.855l3.76-3.754H203.1l3.754,3.754Z" transform="translate(590.152 226.04) rotate(-16)" fill="#ffce54"/>
      <path id="Path_8" data-name="Path 8" d="M383.71,221.921v68.817l13.6,9.069,13.606-9.069V221.921Zm13.6,55.211a4.534,4.534,0,1,1,4.537-4.531A4.533,4.533,0,0,1,397.31,277.132Zm0-13.6a4.534,4.534,0,1,1,4.537-4.538A4.538,4.538,0,0,1,397.31,263.532Z" transform="translate(491.306 325.573) rotate(-16)" fill="#434a54"/>
      <path id="Path_9" data-name="Path 9" d="M213.815,20.251c-2.186-6.6-6.843-17.965-13.454-19.912A8.3,8.3,0,0,0,198,0c-4.5,0-8.412,3.434-13.826,8.179-5.912,5.2-14.018,12.311-26.216,18.111-14.477,6.883-31.751,10.371-51.34,10.371-20.822,0-44.853-3.913-71.408-11.627a22.559,22.559,0,0,0-6.218-.943,15.525,15.525,0,0,0-12.145,5.6C12.025,35.34,9.626,45.226,9.719,59.072a135.675,135.675,0,0,0,1.409,18.417l.113.7.319.631c.246.485,6.186,12.059,21.839,23.526a109.9,109.9,0,0,0,31.273,15.719c14.477,4.69,30.788,7.069,48.474,7.069,18.733,0,39.329-2.678,61.207-7.959,15.38-3.714,27.067-11.793,34.747-24.024,6.292-10.019,9.66-22.416,10.026-36.833A108.944,108.944,0,0,0,213.815,20.251Z" transform="translate(732.993 388.906) rotate(-16)" fill="#747474"/>
      <path id="Path_10" data-name="Path 10" d="M9.806,63c.478-11.175,2.837-19.314,7.043-24.237a15.525,15.525,0,0,1,12.145-5.6,22.575,22.575,0,0,1,6.218.943C61.767,41.816,85.8,45.73,106.62,45.73c19.589,0,36.864-3.488,51.34-10.371,12.2-5.8,20.3-12.915,26.216-18.111C189.591,12.5,193.5,9.069,198,9.069a8.3,8.3,0,0,1,2.358.339c6.611,1.947,11.268,13.314,13.454,19.912a108.545,108.545,0,0,1,5.236,28.987c.026-.658.053-1.322.073-1.993a108.918,108.918,0,0,0-5.309-36.063c-2.186-6.6-6.843-17.965-13.454-19.912A8.3,8.3,0,0,0,198,0c-4.5,0-8.412,3.434-13.826,8.179-5.912,5.2-14.018,12.311-26.216,18.111-14.477,6.883-31.751,10.371-51.34,10.371-20.822,0-44.853-3.913-71.408-11.627a22.559,22.559,0,0,0-6.218-.943,15.525,15.525,0,0,0-12.145,5.6c-4.823,5.647-7.222,15.533-7.129,29.379C9.726,60.42,9.759,61.728,9.806,63Z" transform="translate(732.993 388.906) rotate(-16)" fill="#fff" opacity="0.1"/>
      <path id="Path_11" data-name="Path 11" d="M213.451,173.246l-36.841,18.988L140.05,201.5H105.1l-29.917-3.767L47.976,188.9s-25.532-11.122-26.383-11.687c-.432-.292-4.916-1.853-9.169-3.309.14,1.1.246,1.761.259,1.853l.113.7.319.631c.246.485,6.186,12.059,21.839,23.526a109.9,109.9,0,0,0,31.273,15.719C80.7,221.022,97.015,223.4,114.7,223.4c18.733,0,39.329-2.678,61.207-7.959,15.38-3.714,27.067-11.793,34.747-24.024a63.65,63.65,0,0,0,8.119-20.37Z" transform="translate(704.411 294.872) rotate(-16)" fill="#5a5a5a"/>
      <g id="Group_2" data-name="Group 2" transform="translate(801.228 458.459) rotate(-16)">
        <path id="Path_12" data-name="Path 12" d="M169.158,246.341a42.835,42.835,0,0,1,2.119-9.414l-8.5-3.169a52.152,52.152,0,0,0-2.624,11.441,32.7,32.7,0,0,0,.292,9.833q5.063,1.236,10.371,2.126C168.872,254.154,168.806,249.756,169.158,246.341Z" transform="translate(-132.717 -219.965)" fill="#434a54"/>
        <path id="Path_13" data-name="Path 13" d="M235.225,241.368l-8.5-3.176A52.3,52.3,0,0,0,224.1,249.64a30.571,30.571,0,0,0,.831,12q4.963.3,10.086.332c-2.192-3-2.286-7.628-1.913-11.188A42.842,42.842,0,0,1,235.225,241.368Z" transform="translate(-169.458 -222.513)" fill="#434a54"/>
        <path id="Path_14" data-name="Path 14" d="M297.036,250.782a42.862,42.862,0,0,1,2.119-9.414l-8.5-3.176a51.856,51.856,0,0,0-2.624,11.448,30.76,30.76,0,0,0,.744,11.727c3.069-.233,6.165-.519,9.308-.871C296.737,257.579,296.724,253.8,297.036,250.782Z" transform="translate(-206.185 -222.513)" fill="#434a54"/>
        <path id="Path_15" data-name="Path 15" d="M363.1,229.157l-8.491-3.176a52.272,52.272,0,0,0-2.624,11.447,29.183,29.183,0,0,0,1.269,13.307q4.514-.827,9.122-1.8c-1.681-2.983-1.727-7.116-1.389-10.364A43.529,43.529,0,0,1,363.1,229.157Z" transform="translate(-242.925 -215.497)" fill="#434a54"/>
        <path id="Path_16" data-name="Path 16" d="M424.916,213.931a43.611,43.611,0,0,1,2.119-9.414l-8.491-3.176a51.849,51.849,0,0,0-2.624,11.447c-.718,6.617.226,12.171,2.724,16.364a55.876,55.876,0,0,0,8-4.318C424.638,221.83,424.564,217.386,424.916,213.931Z" transform="translate(-279.659 -201.341)" fill="#434a54"/>
        <path id="Path_17" data-name="Path 17" d="M105.215,225.589a42.862,42.862,0,0,1,2.119-9.414l-8.5-3.169a52.161,52.161,0,0,0-2.624,11.441,34.227,34.227,0,0,0,.066,8.518,113.569,113.569,0,0,0,11.647,5.242l.246-.279C104.97,235.083,104.8,229.648,105.215,225.589Z" transform="translate(-95.981 -208.043)" fill="#434a54"/>
      </g>
      <path id="Path_18" data-name="Path 18" d="M216.2,164.421A78.251,78.251,0,0,0,219,150.17a112.574,112.574,0,0,1-23.792,17,147.289,147.289,0,0,1-32.169,12.836,174.236,174.236,0,0,1-45.514,5.84,203.449,203.449,0,0,1-46.354-5.229,178.49,178.49,0,0,1-33.751-11.507c-15.46-7.116-24.7-14.311-27.06-16.258.4,6.205,1.1,10.657,1.136,10.909l.113.7.319.631c.013.033.066.126.14.273a155.455,155.455,0,0,0,21.168,11.806,187.213,187.213,0,0,0,35.584,12.212,212.224,212.224,0,0,0,48.705,5.533,183.18,183.18,0,0,0,48.2-6.238,156.106,156.106,0,0,0,34.249-13.78A135.117,135.117,0,0,0,216.2,164.421Z" transform="translate(708.855 306.075) rotate(-16)" fill="#656d78"/>
    </g>
    <g id="Group_29" data-name="Group 29">
      <g id="Group_4" data-name="Group 4" transform="translate(-28)">
        <g id="Ellipse_1" data-name="Ellipse 1" transform="translate(124 22)" fill="#d01e25" stroke="#c5cfd1" stroke-width="7">
          <ellipse cx="30.5" cy="28.5" rx="30.5" ry="28.5" stroke="none"/>
          <ellipse cx="30.5" cy="28.5" rx="27" ry="25" fill="none"/>
        </g>
        <g id="Rectangle_4" data-name="Rectangle 4" transform="translate(124 -7)" fill="#d01e25" stroke="#c5cfd1" stroke-width="7">
          <rect width="61" height="54" stroke="none"/>
          <rect x="3.5" y="3.5" width="54" height="47" fill="none"/>
        </g>
      </g>
      <g id="Group_5" data-name="Group 5" transform="translate(-136)">
        <g id="Ellipse_1-2" data-name="Ellipse 1" transform="translate(124 22)" fill="#d01e25" stroke="#c5cfd1" stroke-width="7">
          <ellipse cx="30.5" cy="28.5" rx="30.5" ry="28.5" stroke="none"/>
          <ellipse cx="30.5" cy="28.5" rx="27" ry="25" fill="none"/>
        </g>
        <g id="Rectangle_4-2" data-name="Rectangle 4" transform="translate(124 -7)" fill="#d01e25" stroke="#c5cfd1" stroke-width="7">
          <rect width="61" height="54" stroke="none"/>
          <rect x="3.5" y="3.5" width="54" height="47" fill="none"/>
        </g>
      </g>
      <g id="Group_6" data-name="Group 6" transform="translate(-82)">
        <g id="Ellipse_1-3" data-name="Ellipse 1" transform="translate(124 22)" fill="#d01e25" stroke="#c5cfd1" stroke-width="7">
          <ellipse cx="30.5" cy="28.5" rx="30.5" ry="28.5" stroke="none"/>
          <ellipse cx="30.5" cy="28.5" rx="27" ry="25" fill="none"/>
        </g>
        <g id="Rectangle_4-3" data-name="Rectangle 4" transform="translate(124 -7)" fill="#d01e25" stroke="#c5cfd1" stroke-width="7">
          <rect width="61" height="54" stroke="none"/>
          <rect x="3.5" y="3.5" width="54" height="47" fill="none"/>
        </g>
      </g>
      <g id="Group_7" data-name="Group 7" transform="translate(134)">
        <g id="Ellipse_1-4" data-name="Ellipse 1" transform="translate(124 22)" fill="#d01e25" stroke="#c5cfd1" stroke-width="7">
          <ellipse cx="30.5" cy="28.5" rx="30.5" ry="28.5" stroke="none"/>
          <ellipse cx="30.5" cy="28.5" rx="27" ry="25" fill="none"/>
        </g>
        <g id="Rectangle_4-4" data-name="Rectangle 4" transform="translate(124 -7)" fill="#d01e25" stroke="#c5cfd1" stroke-width="7">
          <rect width="61" height="54" stroke="none"/>
          <rect x="3.5" y="3.5" width="54" height="47" fill="none"/>
        </g>
      </g>
      <g id="Group_8" data-name="Group 8" transform="translate(26)">
        <g id="Ellipse_1-5" data-name="Ellipse 1" transform="translate(124 22)" fill="#d01e25" stroke="#c5cfd1" stroke-width="7">
          <ellipse cx="30.5" cy="28.5" rx="30.5" ry="28.5" stroke="none"/>
          <ellipse cx="30.5" cy="28.5" rx="27" ry="25" fill="none"/>
        </g>
        <g id="Rectangle_4-5" data-name="Rectangle 4" transform="translate(124 -7)" fill="#d01e25" stroke="#c5cfd1" stroke-width="7">
          <rect width="61" height="54" stroke="none"/>
          <rect x="3.5" y="3.5" width="54" height="47" fill="none"/>
        </g>
      </g>
      <g id="Group_9" data-name="Group 9" transform="translate(80)">
        <g id="Ellipse_1-6" data-name="Ellipse 1" transform="translate(124 22)" fill="#d01e25" stroke="#c5cfd1" stroke-width="7">
          <ellipse cx="30.5" cy="28.5" rx="30.5" ry="28.5" stroke="none"/>
          <ellipse cx="30.5" cy="28.5" rx="27" ry="25" fill="none"/>
        </g>
        <g id="Rectangle_4-6" data-name="Rectangle 4" transform="translate(124 -7)" fill="#d01e25" stroke="#c5cfd1" stroke-width="7">
          <rect width="61" height="54" stroke="none"/>
          <rect x="3.5" y="3.5" width="54" height="47" fill="none"/>
        </g>
      </g>
      <g id="Group_10" data-name="Group 10" transform="translate(296)">
        <g id="Ellipse_1-7" data-name="Ellipse 1" transform="translate(124 22)" fill="#d01e25" stroke="#c5cfd1" stroke-width="7">
          <ellipse cx="30.5" cy="28.5" rx="30.5" ry="28.5" stroke="none"/>
          <ellipse cx="30.5" cy="28.5" rx="27" ry="25" fill="none"/>
        </g>
        <g id="Rectangle_4-7" data-name="Rectangle 4" transform="translate(124 -7)" fill="#d01e25" stroke="#c5cfd1" stroke-width="7">
          <rect width="61" height="54" stroke="none"/>
          <rect x="3.5" y="3.5" width="54" height="47" fill="none"/>
        </g>
      </g>
      <g id="Group_11" data-name="Group 11" transform="translate(188)">
        <g id="Ellipse_1-8" data-name="Ellipse 1" transform="translate(124 22)" fill="#d01e25" stroke="#c5cfd1" stroke-width="7">
          <ellipse cx="30.5" cy="28.5" rx="30.5" ry="28.5" stroke="none"/>
          <ellipse cx="30.5" cy="28.5" rx="27" ry="25" fill="none"/>
        </g>
        <g id="Rectangle_4-8" data-name="Rectangle 4" transform="translate(124 -7)" fill="#d01e25" stroke="#c5cfd1" stroke-width="7">
          <rect width="61" height="54" stroke="none"/>
          <rect x="3.5" y="3.5" width="54" height="47" fill="none"/>
        </g>
      </g>
      <g id="Group_12" data-name="Group 12" transform="translate(242)">
        <g id="Ellipse_1-9" data-name="Ellipse 1" transform="translate(124 22)" fill="#d01e25" stroke="#c5cfd1" stroke-width="7">
          <ellipse cx="30.5" cy="28.5" rx="30.5" ry="28.5" stroke="none"/>
          <ellipse cx="30.5" cy="28.5" rx="27" ry="25" fill="none"/>
        </g>
        <g id="Rectangle_4-9" data-name="Rectangle 4" transform="translate(124 -7)" fill="#d01e25" stroke="#c5cfd1" stroke-width="7">
          <rect width="61" height="54" stroke="none"/>
          <rect x="3.5" y="3.5" width="54" height="47" fill="none"/>
        </g>
      </g>
      <g id="Group_13" data-name="Group 13" transform="translate(458)">
        <g id="Ellipse_1-10" data-name="Ellipse 1" transform="translate(124 22)" fill="#d01e25" stroke="#c5cfd1" stroke-width="7">
          <ellipse cx="30.5" cy="28.5" rx="30.5" ry="28.5" stroke="none"/>
          <ellipse cx="30.5" cy="28.5" rx="27" ry="25" fill="none"/>
        </g>
        <g id="Rectangle_4-10" data-name="Rectangle 4" transform="translate(124 -7)" fill="#d01e25" stroke="#c5cfd1" stroke-width="7">
          <rect width="61" height="54" stroke="none"/>
          <rect x="3.5" y="3.5" width="54" height="47" fill="none"/>
        </g>
      </g>
      <g id="Group_14" data-name="Group 14" transform="translate(350)">
        <g id="Ellipse_1-11" data-name="Ellipse 1" transform="translate(124 22)" fill="#d01e25" stroke="#c5cfd1" stroke-width="7">
          <ellipse cx="30.5" cy="28.5" rx="30.5" ry="28.5" stroke="none"/>
          <ellipse cx="30.5" cy="28.5" rx="27" ry="25" fill="none"/>
        </g>
        <g id="Rectangle_4-11" data-name="Rectangle 4" transform="translate(124 -7)" fill="#d01e25" stroke="#c5cfd1" stroke-width="7">
          <rect width="61" height="54" stroke="none"/>
          <rect x="3.5" y="3.5" width="54" height="47" fill="none"/>
        </g>
      </g>
      <g id="Group_15" data-name="Group 15" transform="translate(404)">
        <g id="Ellipse_1-12" data-name="Ellipse 1" transform="translate(124 22)" fill="#d01e25" stroke="#c5cfd1" stroke-width="7">
          <ellipse cx="30.5" cy="28.5" rx="30.5" ry="28.5" stroke="none"/>
          <ellipse cx="30.5" cy="28.5" rx="27" ry="25" fill="none"/>
        </g>
        <g id="Rectangle_4-12" data-name="Rectangle 4" transform="translate(124 -7)" fill="#d01e25" stroke="#c5cfd1" stroke-width="7">
          <rect width="61" height="54" stroke="none"/>
          <rect x="3.5" y="3.5" width="54" height="47" fill="none"/>
        </g>
      </g>
      <g id="Group_16" data-name="Group 16" transform="translate(620)">
        <g id="Ellipse_1-13" data-name="Ellipse 1" transform="translate(124 22)" fill="#d01e25" stroke="#c5cfd1" stroke-width="7">
          <ellipse cx="30.5" cy="28.5" rx="30.5" ry="28.5" stroke="none"/>
          <ellipse cx="30.5" cy="28.5" rx="27" ry="25" fill="none"/>
        </g>
        <g id="Rectangle_4-13" data-name="Rectangle 4" transform="translate(124 -7)" fill="#d01e25" stroke="#c5cfd1" stroke-width="7">
          <rect width="61" height="54" stroke="none"/>
          <rect x="3.5" y="3.5" width="54" height="47" fill="none"/>
        </g>
      </g>
      <g id="Group_17" data-name="Group 17" transform="translate(512)">
        <g id="Ellipse_1-14" data-name="Ellipse 1" transform="translate(124 22)" fill="#d01e25" stroke="#c5cfd1" stroke-width="7">
          <ellipse cx="30.5" cy="28.5" rx="30.5" ry="28.5" stroke="none"/>
          <ellipse cx="30.5" cy="28.5" rx="27" ry="25" fill="none"/>
        </g>
        <g id="Rectangle_4-14" data-name="Rectangle 4" transform="translate(124 -7)" fill="#d01e25" stroke="#c5cfd1" stroke-width="7">
          <rect width="61" height="54" stroke="none"/>
          <rect x="3.5" y="3.5" width="54" height="47" fill="none"/>
        </g>
      </g>
      <g id="Group_18" data-name="Group 18" transform="translate(566)">
        <g id="Ellipse_1-15" data-name="Ellipse 1" transform="translate(124 22)" fill="#d01e25" stroke="#c5cfd1" stroke-width="7">
          <ellipse cx="30.5" cy="28.5" rx="30.5" ry="28.5" stroke="none"/>
          <ellipse cx="30.5" cy="28.5" rx="27" ry="25" fill="none"/>
        </g>
        <g id="Rectangle_4-15" data-name="Rectangle 4" transform="translate(124 -7)" fill="#d01e25" stroke="#c5cfd1" stroke-width="7">
          <rect width="61" height="54" stroke="none"/>
          <rect x="3.5" y="3.5" width="54" height="47" fill="none"/>
        </g>
      </g>
      <g id="Group_19" data-name="Group 19" transform="translate(782)">
        <g id="Ellipse_1-16" data-name="Ellipse 1" transform="translate(124 22)" fill="#d01e25" stroke="#c5cfd1" stroke-width="7">
          <ellipse cx="30.5" cy="28.5" rx="30.5" ry="28.5" stroke="none"/>
          <ellipse cx="30.5" cy="28.5" rx="27" ry="25" fill="none"/>
        </g>
        <g id="Rectangle_4-16" data-name="Rectangle 4" transform="translate(124 -7)" fill="#d01e25" stroke="#c5cfd1" stroke-width="7">
          <rect width="61" height="54" stroke="none"/>
          <rect x="3.5" y="3.5" width="54" height="47" fill="none"/>
        </g>
      </g>
      <g id="Group_20" data-name="Group 20" transform="translate(674)">
        <g id="Ellipse_1-17" data-name="Ellipse 1" transform="translate(124 22)" fill="#d01e25" stroke="#c5cfd1" stroke-width="7">
          <ellipse cx="30.5" cy="28.5" rx="30.5" ry="28.5" stroke="none"/>
          <ellipse cx="30.5" cy="28.5" rx="27" ry="25" fill="none"/>
        </g>
        <g id="Rectangle_4-17" data-name="Rectangle 4" transform="translate(124 -7)" fill="#d01e25" stroke="#c5cfd1" stroke-width="7">
          <rect width="61" height="54" stroke="none"/>
          <rect x="3.5" y="3.5" width="54" height="47" fill="none"/>
        </g>
      </g>
      <g id="Group_21" data-name="Group 21" transform="translate(728)">
        <g id="Ellipse_1-18" data-name="Ellipse 1" transform="translate(124 22)" fill="#d01e25" stroke="#c5cfd1" stroke-width="7">
          <ellipse cx="30.5" cy="28.5" rx="30.5" ry="28.5" stroke="none"/>
          <ellipse cx="30.5" cy="28.5" rx="27" ry="25" fill="none"/>
        </g>
        <g id="Rectangle_4-18" data-name="Rectangle 4" transform="translate(124 -7)" fill="#d01e25" stroke="#c5cfd1" stroke-width="7">
          <rect width="61" height="54" stroke="none"/>
          <rect x="3.5" y="3.5" width="54" height="47" fill="none"/>
        </g>
      </g>
      <g id="Group_22" data-name="Group 22" transform="translate(890)">
        <g id="Ellipse_1-19" data-name="Ellipse 1" transform="translate(124 22)" fill="#d01e25" stroke="#c5cfd1" stroke-width="7">
          <ellipse cx="30.5" cy="28.5" rx="30.5" ry="28.5" stroke="none"/>
          <ellipse cx="30.5" cy="28.5" rx="27" ry="25" fill="none"/>
        </g>
        <g id="Rectangle_4-19" data-name="Rectangle 4" transform="translate(124 -7)" fill="#d01e25" stroke="#c5cfd1" stroke-width="7">
          <rect width="61" height="54" stroke="none"/>
          <rect x="3.5" y="3.5" width="54" height="47" fill="none"/>
        </g>
      </g>
      <g id="Group_23" data-name="Group 23" transform="translate(836)">
        <g id="Ellipse_1-20" data-name="Ellipse 1" transform="translate(124 22)" fill="#d01e25" stroke="#c5cfd1" stroke-width="7">
          <ellipse cx="30.5" cy="28.5" rx="30.5" ry="28.5" stroke="none"/>
          <ellipse cx="30.5" cy="28.5" rx="27" ry="25" fill="none"/>
        </g>
        <g id="Rectangle_4-20" data-name="Rectangle 4" transform="translate(124 -7)" fill="#d01e25" stroke="#c5cfd1" stroke-width="7">
          <rect width="61" height="54" stroke="none"/>
          <rect x="3.5" y="3.5" width="54" height="47" fill="none"/>
        </g>
      </g>
      <g id="Group_24" data-name="Group 24" transform="translate(1052)">
        <g id="Ellipse_1-21" data-name="Ellipse 1" transform="translate(124 22)" fill="#d01e25" stroke="#c5cfd1" stroke-width="7">
          <ellipse cx="30.5" cy="28.5" rx="30.5" ry="28.5" stroke="none"/>
          <ellipse cx="30.5" cy="28.5" rx="27" ry="25" fill="none"/>
        </g>
        <g id="Rectangle_4-21" data-name="Rectangle 4" transform="translate(124 -7)" fill="#d01e25" stroke="#c5cfd1" stroke-width="7">
          <rect width="61" height="54" stroke="none"/>
          <rect x="3.5" y="3.5" width="54" height="47" fill="none"/>
        </g>
      </g>
      <g id="Group_25" data-name="Group 25" transform="translate(944)">
        <g id="Ellipse_1-22" data-name="Ellipse 1" transform="translate(124 22)" fill="#d01e25" stroke="#c5cfd1" stroke-width="7">
          <ellipse cx="30.5" cy="28.5" rx="30.5" ry="28.5" stroke="none"/>
          <ellipse cx="30.5" cy="28.5" rx="27" ry="25" fill="none"/>
        </g>
        <g id="Rectangle_4-22" data-name="Rectangle 4" transform="translate(124 -7)" fill="#d01e25" stroke="#c5cfd1" stroke-width="7">
          <rect width="61" height="54" stroke="none"/>
          <rect x="3.5" y="3.5" width="54" height="47" fill="none"/>
        </g>
      </g>
      <g id="Group_26" data-name="Group 26" transform="translate(998)">
        <g id="Ellipse_1-23" data-name="Ellipse 1" transform="translate(124 22)" fill="#d01e25" stroke="#c5cfd1" stroke-width="7">
          <ellipse cx="30.5" cy="28.5" rx="30.5" ry="28.5" stroke="none"/>
          <ellipse cx="30.5" cy="28.5" rx="27" ry="25" fill="none"/>
        </g>
        <g id="Rectangle_4-23" data-name="Rectangle 4" transform="translate(124 -7)" fill="#d01e25" stroke="#c5cfd1" stroke-width="7">
          <rect width="61" height="54" stroke="none"/>
          <rect x="3.5" y="3.5" width="54" height="47" fill="none"/>
        </g>
      </g>
      <g id="Group_27" data-name="Group 27" transform="translate(1106)">
        <g id="Ellipse_1-24" data-name="Ellipse 1" transform="translate(124 22)" fill="#d01e25" stroke="#c5cfd1" stroke-width="7">
          <ellipse cx="30.5" cy="28.5" rx="30.5" ry="28.5" stroke="none"/>
          <ellipse cx="30.5" cy="28.5" rx="27" ry="25" fill="none"/>
        </g>
        <g id="Rectangle_4-24" data-name="Rectangle 4" transform="translate(124 -7)" fill="#d01e25" stroke="#c5cfd1" stroke-width="7">
          <rect width="61" height="54" stroke="none"/>
          <rect x="3.5" y="3.5" width="54" height="47" fill="none"/>
        </g>
      </g>
    </g>
  </g>
</svg>
