<svg xmlns="http://www.w3.org/2000/svg" xmlns:xlink="http://www.w3.org/1999/xlink" height="80vh" viewBox="0 0 1280 800">
  <defs>
    <clipPath id="clip-Web_1280_2">
      <rect width="1280" height="800"/>
    </clipPath>
  </defs>
  <g id="Web_1280_2" data-name="Web 1280 – 2" clip-path="url(#clip-Web_1280_2)">
    <rect width="1280" height="800" fill="#fff"/>
    <rect id="Rectangle_1" data-name="Rectangle 1" width="1280" height="800" fill="#2c3782"/>
    <text id="Superhero_Pepperpots_Thor_Timestone_asgardsking" data-name="Superhero
Pepperpots
Thor
Timestone
asgardsking" transform="translate(1195 293)" fill="#d01e25" font-size="80" font-family="Marvel-Regular, Marvel"><tspan x="-245.04" y="0">SUPERHERO</tspan><tspan x="-279.36" y="104">PEPPERPOTS</tspan><tspan x="-124.48" y="208">THOR</tspan><tspan x="-254.48" y="312">TIMESTONE</tspan><tspan x="-301.12" y="416">ASGARDSKING</tspan></text>
    <rect id="Rectangle_2" data-name="Rectangle 2" width="42" height="800" transform="translate(367)" fill="#4a77bb"/>
    <g id="walking-spider-silhouette-clip-art-1" transform="translate(126.5 232.498)">
      <g id="Group_1" data-name="Group 1">
        <path id="Path_2" data-name="Path 2" d="M429.326,181.278c-.292-2.874-.8-5.893-2.485-8.177a10,10,0,0,0,.177-1.51c-.064-7.188-7.209-11.987-13.569-15.338-13.9-7.324-30.1-14.146-44.535-20.344,4.4-3.3,31.436-45.646,36.375-64.393.2-.762.4-1.528.593-2.292a35.617,35.617,0,0,0,7.928-11.493,10.961,10.961,0,0,0,.963-6.252c-.431-2.1-2.132-4.051-4.269-4.171a7.6,7.6,0,0,0-2.433.394,310.673,310.673,0,0,0-55.88,21.61,74.016,74.016,0,0,0-11.629-28.723c-10.2-15-25.455-26.206-42.266-33.021C282.62,1.213,265.141-1.47,248.6,2.089c-11.81,2.543-22.732,8.133-33.163,14.226-11.5,6.716-22.889,14.393-30.425,25.372-9.328,13.588-11.746,31.012-9.767,47.374s8,31.938,14.4,47.128c1.219,2.9,2.465,5.8,3.773,8.668-.463-.321-.932-.637-1.391-.962A179.552,179.552,0,0,1,150.2,102.583c-1.9-2.627-4.359-5.513-7.191-6.627q-1.9-8.9-3.8-17.8-3.237-15.144-6.426-30.3c-.318-1.527-.767-3.239-2.133-3.992a4.54,4.54,0,0,0-2.434-.407c-4.961.245-9.385,3.366-12.092,7.579-.974.382-1.939.8-2.882,1.232Q80.084,67.52,46.928,82.778A10.638,10.638,0,0,0,42.422,85.9a6.332,6.332,0,0,0-.091,6.519,65.177,65.177,0,0,0-16.3,12.357C11.344,120.219,5.185,141.723.5,162.514c3.779-12.569,30.405-46.438,36.018-52.383,4.091-4.332,9.277-7.444,14.393-10.5l2.716-1.622a49.078,49.078,0,0,0,18.089-1.964c15.778-4.8,28.7-17.361,44.4-21.584,1.787,3.895,4.126,7.513,6.175,11.282a82.841,82.841,0,0,1,5.584,12.836,63.05,63.05,0,0,0,3.995,10.25,22.762,22.762,0,0,0,3.7,11.751c4.027,6.136,10.22,10.4,16.362,14.476-2.72-.785-5.447-1.544-8.191-2.241-11.482-2.915-23.149-5.048-34.853-6.875-4.391-.686-9.749-.953-12.348,2.652-1.976,2.742-1.493,9.934-1.493,9.934A79.053,79.053,0,0,0,77.78,189.671c.036,1.364.168,2.868,1.15,3.816a3.151,3.151,0,0,0,1.234.691,57.255,57.255,0,0,0,4.535,24.9c.393.906.845,1.782,1.279,2.667-.229.2-.438.417-.669.614C73.264,232.618,57.666,239.62,49.887,253.4c-.984,1.743-1.81,3.964-.743,5.658a5.3,5.3,0,0,0,2.845,1.918c.263.094.533.11.8.192a213.606,213.606,0,0,0-5.381,135.178c-1.757-86.157,10.582-92.422,23.57-137.316A43.7,43.7,0,0,0,82.989,250.2a160.332,160.332,0,0,0,11.5-14.11l20.956,32.24A179.077,179.077,0,0,1,99.522,229.8a64.792,64.792,0,0,1,5.862-6.076c6.836-6.128,15.248-10.341,21.866-16.7a74.468,74.468,0,0,0,11.263-14.739c-2.782,16.6-2.415,34.087-1.126,50.933a171.506,171.506,0,0,1,23.958-77.031c1.419.462,2.841.9,4.266,1.328.811.488,1.626.971,2.435,1.459,9.383,5.656,19.209,11.269,29.544,14.662a15.008,15.008,0,0,0,.688,3.424A15.277,15.277,0,0,0,194,192.683a22.689,22.689,0,0,0-1.209,8.261,30.445,30.445,0,0,0,.677,8.555c1.346,4.964,5,8.921,8.527,12.663a77.548,77.548,0,0,1-1.295-11.681c-.114-3.3.052-6.837,1.952-9.543,1.559-2.22,4.059-3.591,5.864-5.611a46.885,46.885,0,0,0,18.5,3.1c.941-.024,1.887-.109,2.831-.19a41.92,41.92,0,0,1-7.47,24.394c3.062,1.945,6.963-.773,9.2-3.629a38.552,38.552,0,0,0,8.057-20.985c.051-.75.06-1.508.057-2.264a19.648,19.648,0,0,0,2.4-1.253,19.265,19.265,0,0,0,5.869-6.207,106.2,106.2,0,0,1,14.256,4.663c2.624,1.094,5.228,2.286,7.865,3.366a178.473,178.473,0,0,1-2.964,55.949c-.67,3.123-1.052,7.162,1.719,8.753a6.647,6.647,0,0,0,2.873.694c.285.02.571-.03.857-.019,2.975,52.086-14.306,103.266-31.416,152.714,15.984-18.072,50.52-103.92,50.61-153.495a25.605,25.605,0,0,0-.522-5.932,20.837,20.837,0,0,0,6.384-17.256c-.5-3.848-2.17-7.427-3.441-11.094a55.184,55.184,0,0,1-2.614-24.739c.145-1.171.322-2.342.494-3.513a28.239,28.239,0,0,0,6.223-2.5c2.493-1.415,4.857-3.551,5.418-6.3,8.541,2.361,17.135,4.263,25.723,4.445a190.022,190.022,0,0,1-1.327,41.476c-1.279,8.839-3.188,17.715-2.433,26.614a6.892,6.892,0,0,0,1.017,3.538A3.81,3.81,0,0,0,328.5,267c-7.716,29.635-26.406,56.164-44.611,81.33,45.659-27.347,59.813-86.056,60.375-89.524a29.551,29.551,0,0,0,6.141-11.738c1.158-4.543,1.215-9.283,1.265-13.971q.243-22.579.485-45.159a12.691,12.691,0,0,0,1.193-1.161c2.863-3.619,3.24-9.484-.2-12.554-2.06-1.835-4.95-2.333-7.677-2.749q-13.822-2.1-27.688-3.912a112.842,112.842,0,0,0,15.273-4.143A141.26,141.26,0,0,0,357.2,151.473l.014-.009a74.9,74.9,0,0,1,49.312,31.693c.815,1.221,1.707,2.554,3.11,2.987a5.846,5.846,0,0,0,3.351-.276,28.305,28.305,0,0,0,3.047-1.129c1.687,13.242,6.135,68.646,3.89,82.618.879.8,2.044-.629,2.359-1.778A231.017,231.017,0,0,0,429.326,181.278Zm-314.753,3.157c-5.879,9.519-11.884,19.128-19.107,27.615a178.825,178.825,0,0,1-2.375-19.24,9.047,9.047,0,0,0,4.882-4.36c1.161-2.427.977-5.246,1.021-7.936.2-12.326,5.608-23.8,11.391-34.79l22.293,9.4Zm210.866-48.527c13.174-11.5,23.56-26.5,26.782-43.579.334-1.769.525-3.554.7-5.34l13.955-.069c5.5-.027,11.119-.073,16.314-1.88.25-.087.483-.211.729-.305a429.417,429.417,0,0,1-21.77,47.515,21.577,21.577,0,0,0-9.716-1.37A120.023,120.023,0,0,0,325.439,135.908Z" fill="#d01e25"/>
      </g>
    </g>
    <g id="Group_29" data-name="Group 29">
      <g id="Group_4" data-name="Group 4" transform="translate(-28)">
        <g id="Ellipse_1" data-name="Ellipse 1" transform="translate(124 22)" fill="#d01e25" stroke="#c5cfd1" stroke-width="7">
          <ellipse cx="30.5" cy="28.5" rx="30.5" ry="28.5" stroke="none"/>
          <ellipse cx="30.5" cy="28.5" rx="27" ry="25" fill="none"/>
        </g>
        <g id="Rectangle_4" data-name="Rectangle 4" transform="translate(124 -7)" fill="#d01e25" stroke="#c5cfd1" stroke-width="7">
          <rect width="61" height="54" stroke="none"/>
          <rect x="3.5" y="3.5" width="54" height="47" fill="none"/>
        </g>
      </g>
      <g id="Group_5" data-name="Group 5" transform="translate(-136)">
        <g id="Ellipse_1-2" data-name="Ellipse 1" transform="translate(124 22)" fill="#d01e25" stroke="#c5cfd1" stroke-width="7">
          <ellipse cx="30.5" cy="28.5" rx="30.5" ry="28.5" stroke="none"/>
          <ellipse cx="30.5" cy="28.5" rx="27" ry="25" fill="none"/>
        </g>
        <g id="Rectangle_4-2" data-name="Rectangle 4" transform="translate(124 -7)" fill="#d01e25" stroke="#c5cfd1" stroke-width="7">
          <rect width="61" height="54" stroke="none"/>
          <rect x="3.5" y="3.5" width="54" height="47" fill="none"/>
        </g>
      </g>
      <g id="Group_6" data-name="Group 6" transform="translate(-82)">
        <g id="Ellipse_1-3" data-name="Ellipse 1" transform="translate(124 22)" fill="#d01e25" stroke="#c5cfd1" stroke-width="7">
          <ellipse cx="30.5" cy="28.5" rx="30.5" ry="28.5" stroke="none"/>
          <ellipse cx="30.5" cy="28.5" rx="27" ry="25" fill="none"/>
        </g>
        <g id="Rectangle_4-3" data-name="Rectangle 4" transform="translate(124 -7)" fill="#d01e25" stroke="#c5cfd1" stroke-width="7">
          <rect width="61" height="54" stroke="none"/>
          <rect x="3.5" y="3.5" width="54" height="47" fill="none"/>
        </g>
      </g>
      <g id="Group_7" data-name="Group 7" transform="translate(134)">
        <g id="Ellipse_1-4" data-name="Ellipse 1" transform="translate(124 22)" fill="#d01e25" stroke="#c5cfd1" stroke-width="7">
          <ellipse cx="30.5" cy="28.5" rx="30.5" ry="28.5" stroke="none"/>
          <ellipse cx="30.5" cy="28.5" rx="27" ry="25" fill="none"/>
        </g>
        <g id="Rectangle_4-4" data-name="Rectangle 4" transform="translate(124 -7)" fill="#d01e25" stroke="#c5cfd1" stroke-width="7">
          <rect width="61" height="54" stroke="none"/>
          <rect x="3.5" y="3.5" width="54" height="47" fill="none"/>
        </g>
      </g>
      <g id="Group_8" data-name="Group 8" transform="translate(26)">
        <g id="Ellipse_1-5" data-name="Ellipse 1" transform="translate(124 22)" fill="#d01e25" stroke="#c5cfd1" stroke-width="7">
          <ellipse cx="30.5" cy="28.5" rx="30.5" ry="28.5" stroke="none"/>
          <ellipse cx="30.5" cy="28.5" rx="27" ry="25" fill="none"/>
        </g>
        <g id="Rectangle_4-5" data-name="Rectangle 4" transform="translate(124 -7)" fill="#d01e25" stroke="#c5cfd1" stroke-width="7">
          <rect width="61" height="54" stroke="none"/>
          <rect x="3.5" y="3.5" width="54" height="47" fill="none"/>
        </g>
      </g>
      <g id="Group_9" data-name="Group 9" transform="translate(80)">
        <g id="Ellipse_1-6" data-name="Ellipse 1" transform="translate(124 22)" fill="#d01e25" stroke="#c5cfd1" stroke-width="7">
          <ellipse cx="30.5" cy="28.5" rx="30.5" ry="28.5" stroke="none"/>
          <ellipse cx="30.5" cy="28.5" rx="27" ry="25" fill="none"/>
        </g>
        <g id="Rectangle_4-6" data-name="Rectangle 4" transform="translate(124 -7)" fill="#d01e25" stroke="#c5cfd1" stroke-width="7">
          <rect width="61" height="54" stroke="none"/>
          <rect x="3.5" y="3.5" width="54" height="47" fill="none"/>
        </g>
      </g>
      <g id="Group_10" data-name="Group 10" transform="translate(296)">
        <g id="Ellipse_1-7" data-name="Ellipse 1" transform="translate(124 22)" fill="#d01e25" stroke="#c5cfd1" stroke-width="7">
          <ellipse cx="30.5" cy="28.5" rx="30.5" ry="28.5" stroke="none"/>
          <ellipse cx="30.5" cy="28.5" rx="27" ry="25" fill="none"/>
        </g>
        <g id="Rectangle_4-7" data-name="Rectangle 4" transform="translate(124 -7)" fill="#d01e25" stroke="#c5cfd1" stroke-width="7">
          <rect width="61" height="54" stroke="none"/>
          <rect x="3.5" y="3.5" width="54" height="47" fill="none"/>
        </g>
      </g>
      <g id="Group_11" data-name="Group 11" transform="translate(188)">
        <g id="Ellipse_1-8" data-name="Ellipse 1" transform="translate(124 22)" fill="#d01e25" stroke="#c5cfd1" stroke-width="7">
          <ellipse cx="30.5" cy="28.5" rx="30.5" ry="28.5" stroke="none"/>
          <ellipse cx="30.5" cy="28.5" rx="27" ry="25" fill="none"/>
        </g>
        <g id="Rectangle_4-8" data-name="Rectangle 4" transform="translate(124 -7)" fill="#d01e25" stroke="#c5cfd1" stroke-width="7">
          <rect width="61" height="54" stroke="none"/>
          <rect x="3.5" y="3.5" width="54" height="47" fill="none"/>
        </g>
      </g>
      <g id="Group_12" data-name="Group 12" transform="translate(242)">
        <g id="Ellipse_1-9" data-name="Ellipse 1" transform="translate(124 22)" fill="#d01e25" stroke="#c5cfd1" stroke-width="7">
          <ellipse cx="30.5" cy="28.5" rx="30.5" ry="28.5" stroke="none"/>
          <ellipse cx="30.5" cy="28.5" rx="27" ry="25" fill="none"/>
        </g>
        <g id="Rectangle_4-9" data-name="Rectangle 4" transform="translate(124 -7)" fill="#d01e25" stroke="#c5cfd1" stroke-width="7">
          <rect width="61" height="54" stroke="none"/>
          <rect x="3.5" y="3.5" width="54" height="47" fill="none"/>
        </g>
      </g>
      <g id="Group_13" data-name="Group 13" transform="translate(458)">
        <g id="Ellipse_1-10" data-name="Ellipse 1" transform="translate(124 22)" fill="#d01e25" stroke="#c5cfd1" stroke-width="7">
          <ellipse cx="30.5" cy="28.5" rx="30.5" ry="28.5" stroke="none"/>
          <ellipse cx="30.5" cy="28.5" rx="27" ry="25" fill="none"/>
        </g>
        <g id="Rectangle_4-10" data-name="Rectangle 4" transform="translate(124 -7)" fill="#d01e25" stroke="#c5cfd1" stroke-width="7">
          <rect width="61" height="54" stroke="none"/>
          <rect x="3.5" y="3.5" width="54" height="47" fill="none"/>
        </g>
      </g>
      <g id="Group_14" data-name="Group 14" transform="translate(350)">
        <g id="Ellipse_1-11" data-name="Ellipse 1" transform="translate(124 22)" fill="#d01e25" stroke="#c5cfd1" stroke-width="7">
          <ellipse cx="30.5" cy="28.5" rx="30.5" ry="28.5" stroke="none"/>
          <ellipse cx="30.5" cy="28.5" rx="27" ry="25" fill="none"/>
        </g>
        <g id="Rectangle_4-11" data-name="Rectangle 4" transform="translate(124 -7)" fill="#d01e25" stroke="#c5cfd1" stroke-width="7">
          <rect width="61" height="54" stroke="none"/>
          <rect x="3.5" y="3.5" width="54" height="47" fill="none"/>
        </g>
      </g>
      <g id="Group_15" data-name="Group 15" transform="translate(404)">
        <g id="Ellipse_1-12" data-name="Ellipse 1" transform="translate(124 22)" fill="#d01e25" stroke="#c5cfd1" stroke-width="7">
          <ellipse cx="30.5" cy="28.5" rx="30.5" ry="28.5" stroke="none"/>
          <ellipse cx="30.5" cy="28.5" rx="27" ry="25" fill="none"/>
        </g>
        <g id="Rectangle_4-12" data-name="Rectangle 4" transform="translate(124 -7)" fill="#d01e25" stroke="#c5cfd1" stroke-width="7">
          <rect width="61" height="54" stroke="none"/>
          <rect x="3.5" y="3.5" width="54" height="47" fill="none"/>
        </g>
      </g>
      <g id="Group_16" data-name="Group 16" transform="translate(620)">
        <g id="Ellipse_1-13" data-name="Ellipse 1" transform="translate(124 22)" fill="#d01e25" stroke="#c5cfd1" stroke-width="7">
          <ellipse cx="30.5" cy="28.5" rx="30.5" ry="28.5" stroke="none"/>
          <ellipse cx="30.5" cy="28.5" rx="27" ry="25" fill="none"/>
        </g>
        <g id="Rectangle_4-13" data-name="Rectangle 4" transform="translate(124 -7)" fill="#d01e25" stroke="#c5cfd1" stroke-width="7">
          <rect width="61" height="54" stroke="none"/>
          <rect x="3.5" y="3.5" width="54" height="47" fill="none"/>
        </g>
      </g>
      <g id="Group_17" data-name="Group 17" transform="translate(512)">
        <g id="Ellipse_1-14" data-name="Ellipse 1" transform="translate(124 22)" fill="#d01e25" stroke="#c5cfd1" stroke-width="7">
          <ellipse cx="30.5" cy="28.5" rx="30.5" ry="28.5" stroke="none"/>
          <ellipse cx="30.5" cy="28.5" rx="27" ry="25" fill="none"/>
        </g>
        <g id="Rectangle_4-14" data-name="Rectangle 4" transform="translate(124 -7)" fill="#d01e25" stroke="#c5cfd1" stroke-width="7">
          <rect width="61" height="54" stroke="none"/>
          <rect x="3.5" y="3.5" width="54" height="47" fill="none"/>
        </g>
      </g>
      <g id="Group_18" data-name="Group 18" transform="translate(566)">
        <g id="Ellipse_1-15" data-name="Ellipse 1" transform="translate(124 22)" fill="#d01e25" stroke="#c5cfd1" stroke-width="7">
          <ellipse cx="30.5" cy="28.5" rx="30.5" ry="28.5" stroke="none"/>
          <ellipse cx="30.5" cy="28.5" rx="27" ry="25" fill="none"/>
        </g>
        <g id="Rectangle_4-15" data-name="Rectangle 4" transform="translate(124 -7)" fill="#d01e25" stroke="#c5cfd1" stroke-width="7">
          <rect width="61" height="54" stroke="none"/>
          <rect x="3.5" y="3.5" width="54" height="47" fill="none"/>
        </g>
      </g>
      <g id="Group_19" data-name="Group 19" transform="translate(782)">
        <g id="Ellipse_1-16" data-name="Ellipse 1" transform="translate(124 22)" fill="#d01e25" stroke="#c5cfd1" stroke-width="7">
          <ellipse cx="30.5" cy="28.5" rx="30.5" ry="28.5" stroke="none"/>
          <ellipse cx="30.5" cy="28.5" rx="27" ry="25" fill="none"/>
        </g>
        <g id="Rectangle_4-16" data-name="Rectangle 4" transform="translate(124 -7)" fill="#d01e25" stroke="#c5cfd1" stroke-width="7">
          <rect width="61" height="54" stroke="none"/>
          <rect x="3.5" y="3.5" width="54" height="47" fill="none"/>
        </g>
      </g>
      <g id="Group_20" data-name="Group 20" transform="translate(674)">
        <g id="Ellipse_1-17" data-name="Ellipse 1" transform="translate(124 22)" fill="#d01e25" stroke="#c5cfd1" stroke-width="7">
          <ellipse cx="30.5" cy="28.5" rx="30.5" ry="28.5" stroke="none"/>
          <ellipse cx="30.5" cy="28.5" rx="27" ry="25" fill="none"/>
        </g>
        <g id="Rectangle_4-17" data-name="Rectangle 4" transform="translate(124 -7)" fill="#d01e25" stroke="#c5cfd1" stroke-width="7">
          <rect width="61" height="54" stroke="none"/>
          <rect x="3.5" y="3.5" width="54" height="47" fill="none"/>
        </g>
      </g>
      <g id="Group_21" data-name="Group 21" transform="translate(728)">
        <g id="Ellipse_1-18" data-name="Ellipse 1" transform="translate(124 22)" fill="#d01e25" stroke="#c5cfd1" stroke-width="7">
          <ellipse cx="30.5" cy="28.5" rx="30.5" ry="28.5" stroke="none"/>
          <ellipse cx="30.5" cy="28.5" rx="27" ry="25" fill="none"/>
        </g>
        <g id="Rectangle_4-18" data-name="Rectangle 4" transform="translate(124 -7)" fill="#d01e25" stroke="#c5cfd1" stroke-width="7">
          <rect width="61" height="54" stroke="none"/>
          <rect x="3.5" y="3.5" width="54" height="47" fill="none"/>
        </g>
      </g>
      <g id="Group_22" data-name="Group 22" transform="translate(890)">
        <g id="Ellipse_1-19" data-name="Ellipse 1" transform="translate(124 22)" fill="#d01e25" stroke="#c5cfd1" stroke-width="7">
          <ellipse cx="30.5" cy="28.5" rx="30.5" ry="28.5" stroke="none"/>
          <ellipse cx="30.5" cy="28.5" rx="27" ry="25" fill="none"/>
        </g>
        <g id="Rectangle_4-19" data-name="Rectangle 4" transform="translate(124 -7)" fill="#d01e25" stroke="#c5cfd1" stroke-width="7">
          <rect width="61" height="54" stroke="none"/>
          <rect x="3.5" y="3.5" width="54" height="47" fill="none"/>
        </g>
      </g>
      <g id="Group_23" data-name="Group 23" transform="translate(836)">
        <g id="Ellipse_1-20" data-name="Ellipse 1" transform="translate(124 22)" fill="#d01e25" stroke="#c5cfd1" stroke-width="7">
          <ellipse cx="30.5" cy="28.5" rx="30.5" ry="28.5" stroke="none"/>
          <ellipse cx="30.5" cy="28.5" rx="27" ry="25" fill="none"/>
        </g>
        <g id="Rectangle_4-20" data-name="Rectangle 4" transform="translate(124 -7)" fill="#d01e25" stroke="#c5cfd1" stroke-width="7">
          <rect width="61" height="54" stroke="none"/>
          <rect x="3.5" y="3.5" width="54" height="47" fill="none"/>
        </g>
      </g>
      <g id="Group_24" data-name="Group 24" transform="translate(1052)">
        <g id="Ellipse_1-21" data-name="Ellipse 1" transform="translate(124 22)" fill="#d01e25" stroke="#c5cfd1" stroke-width="7">
          <ellipse cx="30.5" cy="28.5" rx="30.5" ry="28.5" stroke="none"/>
          <ellipse cx="30.5" cy="28.5" rx="27" ry="25" fill="none"/>
        </g>
        <g id="Rectangle_4-21" data-name="Rectangle 4" transform="translate(124 -7)" fill="#d01e25" stroke="#c5cfd1" stroke-width="7">
          <rect width="61" height="54" stroke="none"/>
          <rect x="3.5" y="3.5" width="54" height="47" fill="none"/>
        </g>
      </g>
      <g id="Group_25" data-name="Group 25" transform="translate(944)">
        <g id="Ellipse_1-22" data-name="Ellipse 1" transform="translate(124 22)" fill="#d01e25" stroke="#c5cfd1" stroke-width="7">
          <ellipse cx="30.5" cy="28.5" rx="30.5" ry="28.5" stroke="none"/>
          <ellipse cx="30.5" cy="28.5" rx="27" ry="25" fill="none"/>
        </g>
        <g id="Rectangle_4-22" data-name="Rectangle 4" transform="translate(124 -7)" fill="#d01e25" stroke="#c5cfd1" stroke-width="7">
          <rect width="61" height="54" stroke="none"/>
          <rect x="3.5" y="3.5" width="54" height="47" fill="none"/>
        </g>
      </g>
      <g id="Group_26" data-name="Group 26" transform="translate(998)">
        <g id="Ellipse_1-23" data-name="Ellipse 1" transform="translate(124 22)" fill="#d01e25" stroke="#c5cfd1" stroke-width="7">
          <ellipse cx="30.5" cy="28.5" rx="30.5" ry="28.5" stroke="none"/>
          <ellipse cx="30.5" cy="28.5" rx="27" ry="25" fill="none"/>
        </g>
        <g id="Rectangle_4-23" data-name="Rectangle 4" transform="translate(124 -7)" fill="#d01e25" stroke="#c5cfd1" stroke-width="7">
          <rect width="61" height="54" stroke="none"/>
          <rect x="3.5" y="3.5" width="54" height="47" fill="none"/>
        </g>
      </g>
      <g id="Group_27" data-name="Group 27" transform="translate(1106)">
        <g id="Ellipse_1-24" data-name="Ellipse 1" transform="translate(124 22)" fill="#d01e25" stroke="#c5cfd1" stroke-width="7">
          <ellipse cx="30.5" cy="28.5" rx="30.5" ry="28.5" stroke="none"/>
          <ellipse cx="30.5" cy="28.5" rx="27" ry="25" fill="none"/>
        </g>
        <g id="Rectangle_4-24" data-name="Rectangle 4" transform="translate(124 -7)" fill="#d01e25" stroke="#c5cfd1" stroke-width="7">
          <rect width="61" height="54" stroke="none"/>
          <rect x="3.5" y="3.5" width="54" height="47" fill="none"/>
        </g>
      </g>
    </g>
  </g>
</svg>
