<svg xmlns="http://www.w3.org/2000/svg" xmlns:xlink="http://www.w3.org/1999/xlink" width="80vw" viewBox="0 0 1280 800">
  <defs>
    <clipPath id="clip-Web_1280_3">
      <rect width="1280" height="800"/>
    </clipPath>
    <style type="text/css">
    @font-face {
      font-family: 'MarvelRegular-Dj83';
	src: local('MarvelRegular-Dj83'),
		url('./fonts/MarvelRegular-Dj83.ttf') format('truetype');
	font-weight: normal;
    }
  </style>
  </defs>
  <g id="Web_1280_3" data-name="Web 1280 – 3" clip-path="url(#clip-Web_1280_3)">
    <rect width="1280" height="800" fill="#fff"/>
    <rect id="Rectangle_1" data-name="Rectangle 1" width="1280" height="800" fill="#101010"/>
    <text id="Webshooter_Thanos_spacedust_tesseract" data-name="Webshooter
Thanos
spacedust
tesseract" transform="translate(95 226)" fill="#cb242e" font-size="80" font-family="Marvel-Regular, Marvel"><tspan x="0" y="0">WEBSHOOTER</tspan><tspan x="0" y="104">THANOS</tspan><tspan x="0" y="208">SPACEDUST</tspan><tspan x="0" y="312">TESSERACT</tspan></text>
    <rect id="Rectangle_2" data-name="Rectangle 2" width="42" height="800" transform="translate(852)" fill="#922331"/>
    <g id="deadpool-silhouette-16" transform="translate(490.951 1132.922)">
      <path id="Path_3" data-name="Path 3" d="M323.495-732.426a9.8,9.8,0,0,0-2.79,1.036,11.838,11.838,0,0,1-3.986,1.2c-1.754.319-5.66,1.2-8.769,1.993-6.617,1.754-19.93,4.943-28.3,6.776-3.268.718-8.45,1.993-11.559,2.87a48.874,48.874,0,0,1-7.254,1.515c-2.95,0-8.849,4.624-10.6,8.291-1.355,2.71-1.674,4.943-1.674,11.559,0,7.972.08,8.211,2.312,10.523,1.275,1.276,2.95,2.312,3.667,2.312,3.029,0,6.218,2.95,9.247,8.45,5.1,9.247,8.052,10.921,17.458,9.885,9.407-1.116,10.842-.957,13.472,1.2,1.674,1.435,2.95,3.747,4.145,7.653,2.152,6.776,3.508,8.609,9.168,12.356,11.24,7.494,18.415,20.807,20.806,38.982a38.172,38.172,0,0,1-.877,9.566c-1.833,9.088-5.66,12.037-12.994,10.124-3.826-1.036-13.153-2.152-28.539-3.348-11.24-.877-16.821-2.312-26.227-6.776-12.436-5.9-24.952-6.3-37.149-1.276-11.4,4.783-14.27,6.138-17.219,8.131-3.826,2.631-6.935,6.377-10.6,12.914-5.341,9.407-12.994,9.327-14.509-.319a46.464,46.464,0,0,0-2.551-8.689c-1.116-2.391-2.152-4.943-2.471-5.58-2.152-5.022-11.24-17.857-16.023-22.64a63.4,63.4,0,0,0-19.212-12.516c-5.58-2.232-7.254-2.471-15.146-2.551-12.277-.08-16.821,1.674-24.553,9.407-5.182,5.1-10.124,12.6-11.878,17.937-.4,1.116-1.2,3.029-1.754,4.385-2.471,5.5-3.428,16.263-2.392,25.669.558,5.341.478,5.979-1.435,9.168a79.9,79.9,0,0,1-6.856,8.928c-2.631,3.029-9.008,11.8-14.19,19.531-12.2,18.335-19.77,28.778-25.35,35.156a66.42,66.42,0,0,0-10.842,15.944c-3.826,7.653-4.7,10.443-7.175,22.72s-6.059,24.314-7.254,24.314c-.319,0-.638,2.95-.638,6.617,0,4.7.319,7.095,1.275,8.37A37.1,37.1,0,0,0,25.19-410.126c4.384,2.073,5.819,2.392,12.037,2.392,4.066,0,8.45-.478,10.284-1.116,7.175-2.551,20.408-3.826,45.2-4.384,24.713-.558,24.713-.558,28.7-2.631a43.01,43.01,0,0,0,7.095-4.943c5.58-5.1,10.284-5.5,18.495-1.594a25.963,25.963,0,0,0,4.863,1.913,12.514,12.514,0,0,1,3.109,1.2,97.346,97.346,0,0,0,11.081,3.268c7.733,1.833,9.805,1.993,18.255,1.674,5.341-.239,10.762-.717,12.2-.957,2.312-.478,2.71-.319,4.145,1.993.957,1.674,1.754,4.863,2.073,8.689,1.116,12.516,8.849,37.866,12.516,40.9,2.392,2.073,4.783,1.754,7.892-1.2,6.776-6.3,8.211-10.682,6.856-20.248-1.2-8.61-.957-11.24,1.116-13.472,2.152-2.232,5.022-2.471,8.769-.558,3.667,1.913,19.292,1.834,25.031,0,7.414-2.471,17.3-3.747,29.5-3.747,13.791,0,19.292-1.036,24.952-4.7,5.9-3.747,7.733-3.268,10.921,3.109,2.87,5.66,9.008,8.37,21.524,9.566,4.384.478,10.363,1.275,13.313,1.833,8.61,1.754,29.815.239,42.888-3.029,2.392-.638,6.537-1.594,9.168-2.232s7.494-1.913,10.762-2.87c3.268-.877,7.573-2.073,9.566-2.551s5.74-1.594,8.45-2.392a29.726,29.726,0,0,1,6.617-1.515,16.45,16.45,0,0,0,4.624-1.2,43.056,43.056,0,0,1,6.935-1.913c6.3-1.116,14.987-3.348,17.7-4.624,3.189-1.515,5.58-5.819,6.3-11.4a22.7,22.7,0,0,1,7.653-15.067c5.341-5.1,13.791-8.45,19.611-7.892,5.182.558,15.226,5.5,26.945,13.393,3.109,2.073,7.175,4.783,9.168,6.138,7.573,5.1,14.429,8.052,24.314,10.682,9.247,2.471,23.676,2.551,40.417.4,10.2-1.355,12.675-1.435,18.734-.638,8.928,1.276,30.293,3.268,40.178,3.906,5.5.319,11.559-.08,21.922-1.355,15.067-1.834,17.7-1.754,35,1.515,9.646,1.833,21.524.08,31.01-4.7A78.188,78.188,0,0,0,784.5-437.629l4.544-5.421v-15.306l-3.587-4.145c-9.566-10.921-21.763-15.386-37.627-13.791-9.327.957-17.219,3.906-26.865,10.124-2.232,1.435-4.624,2.631-5.341,2.631-.8,0-3.268-1.993-5.66-4.464-4.7-5.022-9.088-7.414-13.552-7.494-1.594,0-8.131,1.276-14.509,2.79-13.472,3.189-16.661,3.348-26.387,1.2-16.342-3.587-19.132-6.7-34.757-38.265-3.986-8.131-7.573-15.306-7.892-16.023-2.551-5.022-10.523-27.662-17.06-48.548-3.189-10.124-7.573-22.162-9.805-27.1-1.116-2.391-2.71-5.979-3.587-7.972s-1.834-4.145-2.232-4.783-2.551-4.783-4.783-9.168c-2.152-4.384-4.7-9.247-5.58-10.762-3.189-5.66-8.689-18.734-11.081-26.307-2.392-7.334-11.24-17.7-20.328-23.676-7.334-4.863-13.074-6.856-20.009-6.936-6.377-.08-5.66-.478-21.683,12.436-10.762,8.769-19.053,15.067-31.01,23.756-5.1,3.747-11.559,8.61-14.19,10.762-2.71,2.232-5.74,4.624-6.776,5.341-8.291,5.74-31.568,29.017-44.164,44.164-5.1,6.218-10.2,11.878-11.32,12.6-2.551,1.674-5.421,1.594-7.414-.159-1.515-1.2-4.783-8.689-6.138-13.712a21,21,0,0,0-1.275-3.587c-.877-1.913-6.776-18.415-8.37-23.517-.638-1.993-1.515-4.3-1.913-5.182a33.518,33.518,0,0,1-1.913-5.58c-.638-2.232-2.232-7.573-3.508-11.958a174.6,174.6,0,0,1-6.059-25.111c-2.79-17.3-6.617-22.241-18.016-23.437-5.819-.638-11.559-3.029-12.835-5.421-1.116-2.152.638-4.624,4.544-6.537,1.754-.8,4.464-2.152,6.059-2.95a12.836,12.836,0,0,1,3.986-1.515c.558,0,2.392-1.116,4.066-2.471,2.631-2.232,2.95-2.79,2.95-6.3,0-4.863-.8-7.015-3.986-10.682-2.551-2.79-2.631-2.87-8.291-2.79C328.039-732.825,324.611-732.586,323.495-732.426ZM513.463-586.143c.638,1.036,1.594,4.544,2.152,7.812,2.152,13.074,9.646,23.357,24.633,33.88,15.306,10.682,17.139,12.6,24.713,25.191,8.37,14.03,3.747,16.023-15.545,6.537-16.1-7.892-24.155-9.407-47.751-8.689-11.559.319-19.212.877-24.633,1.993-4.385.8-8.45,1.355-9.008,1.116-1.833-.717-1.116-3.029,3.189-10.124,2.232-3.827,5.022-8.45,6.138-10.284s2.71-4.544,3.587-5.979c2.71-4.624,16.1-24.952,20.886-31.887C510.274-588.774,511.311-589.651,513.463-586.143ZM124.519-528.906c3.348,1.435,5.182,2.87,5.9,4.3,1.993,4.385.638,9.247-2.551,9.247-3.747,0-12.755,5.421-19.77,11.878-7.493,6.856-10.523,8.849-13.712,8.849-2.71,0-3.747-1.993-2.631-5.1,2.631-7.573,17.219-29.017,21.205-31.17C115.431-532.254,118.061-531.855,124.519-528.906Z" fill="#cb242e"/>
    </g>
    <g id="Group_29" data-name="Group 29">
      <g id="Group_4" data-name="Group 4" transform="translate(-28)">
        <g id="Ellipse_1" data-name="Ellipse 1" transform="translate(124 22)" fill="#d01e25" stroke="#c5cfd1" stroke-width="7">
          <ellipse cx="30.5" cy="28.5" rx="30.5" ry="28.5" stroke="none"/>
          <ellipse cx="30.5" cy="28.5" rx="27" ry="25" fill="none"/>
        </g>
        <g id="Rectangle_4" data-name="Rectangle 4" transform="translate(124 -7)" fill="#d01e25" stroke="#c5cfd1" stroke-width="7">
          <rect width="61" height="54" stroke="none"/>
          <rect x="3.5" y="3.5" width="54" height="47" fill="none"/>
        </g>
      </g>
      <g id="Group_5" data-name="Group 5" transform="translate(-136)">
        <g id="Ellipse_1-2" data-name="Ellipse 1" transform="translate(124 22)" fill="#d01e25" stroke="#c5cfd1" stroke-width="7">
          <ellipse cx="30.5" cy="28.5" rx="30.5" ry="28.5" stroke="none"/>
          <ellipse cx="30.5" cy="28.5" rx="27" ry="25" fill="none"/>
        </g>
        <g id="Rectangle_4-2" data-name="Rectangle 4" transform="translate(124 -7)" fill="#d01e25" stroke="#c5cfd1" stroke-width="7">
          <rect width="61" height="54" stroke="none"/>
          <rect x="3.5" y="3.5" width="54" height="47" fill="none"/>
        </g>
      </g>
      <g id="Group_6" data-name="Group 6" transform="translate(-82)">
        <g id="Ellipse_1-3" data-name="Ellipse 1" transform="translate(124 22)" fill="#d01e25" stroke="#c5cfd1" stroke-width="7">
          <ellipse cx="30.5" cy="28.5" rx="30.5" ry="28.5" stroke="none"/>
          <ellipse cx="30.5" cy="28.5" rx="27" ry="25" fill="none"/>
        </g>
        <g id="Rectangle_4-3" data-name="Rectangle 4" transform="translate(124 -7)" fill="#d01e25" stroke="#c5cfd1" stroke-width="7">
          <rect width="61" height="54" stroke="none"/>
          <rect x="3.5" y="3.5" width="54" height="47" fill="none"/>
        </g>
      </g>
      <g id="Group_7" data-name="Group 7" transform="translate(134)">
        <g id="Ellipse_1-4" data-name="Ellipse 1" transform="translate(124 22)" fill="#d01e25" stroke="#c5cfd1" stroke-width="7">
          <ellipse cx="30.5" cy="28.5" rx="30.5" ry="28.5" stroke="none"/>
          <ellipse cx="30.5" cy="28.5" rx="27" ry="25" fill="none"/>
        </g>
        <g id="Rectangle_4-4" data-name="Rectangle 4" transform="translate(124 -7)" fill="#d01e25" stroke="#c5cfd1" stroke-width="7">
          <rect width="61" height="54" stroke="none"/>
          <rect x="3.5" y="3.5" width="54" height="47" fill="none"/>
        </g>
      </g>
      <g id="Group_8" data-name="Group 8" transform="translate(26)">
        <g id="Ellipse_1-5" data-name="Ellipse 1" transform="translate(124 22)" fill="#d01e25" stroke="#c5cfd1" stroke-width="7">
          <ellipse cx="30.5" cy="28.5" rx="30.5" ry="28.5" stroke="none"/>
          <ellipse cx="30.5" cy="28.5" rx="27" ry="25" fill="none"/>
        </g>
        <g id="Rectangle_4-5" data-name="Rectangle 4" transform="translate(124 -7)" fill="#d01e25" stroke="#c5cfd1" stroke-width="7">
          <rect width="61" height="54" stroke="none"/>
          <rect x="3.5" y="3.5" width="54" height="47" fill="none"/>
        </g>
      </g>
      <g id="Group_9" data-name="Group 9" transform="translate(80)">
        <g id="Ellipse_1-6" data-name="Ellipse 1" transform="translate(124 22)" fill="#d01e25" stroke="#c5cfd1" stroke-width="7">
          <ellipse cx="30.5" cy="28.5" rx="30.5" ry="28.5" stroke="none"/>
          <ellipse cx="30.5" cy="28.5" rx="27" ry="25" fill="none"/>
        </g>
        <g id="Rectangle_4-6" data-name="Rectangle 4" transform="translate(124 -7)" fill="#d01e25" stroke="#c5cfd1" stroke-width="7">
          <rect width="61" height="54" stroke="none"/>
          <rect x="3.5" y="3.5" width="54" height="47" fill="none"/>
        </g>
      </g>
      <g id="Group_10" data-name="Group 10" transform="translate(296)">
        <g id="Ellipse_1-7" data-name="Ellipse 1" transform="translate(124 22)" fill="#d01e25" stroke="#c5cfd1" stroke-width="7">
          <ellipse cx="30.5" cy="28.5" rx="30.5" ry="28.5" stroke="none"/>
          <ellipse cx="30.5" cy="28.5" rx="27" ry="25" fill="none"/>
        </g>
        <g id="Rectangle_4-7" data-name="Rectangle 4" transform="translate(124 -7)" fill="#d01e25" stroke="#c5cfd1" stroke-width="7">
          <rect width="61" height="54" stroke="none"/>
          <rect x="3.5" y="3.5" width="54" height="47" fill="none"/>
        </g>
      </g>
      <g id="Group_11" data-name="Group 11" transform="translate(188)">
        <g id="Ellipse_1-8" data-name="Ellipse 1" transform="translate(124 22)" fill="#d01e25" stroke="#c5cfd1" stroke-width="7">
          <ellipse cx="30.5" cy="28.5" rx="30.5" ry="28.5" stroke="none"/>
          <ellipse cx="30.5" cy="28.5" rx="27" ry="25" fill="none"/>
        </g>
        <g id="Rectangle_4-8" data-name="Rectangle 4" transform="translate(124 -7)" fill="#d01e25" stroke="#c5cfd1" stroke-width="7">
          <rect width="61" height="54" stroke="none"/>
          <rect x="3.5" y="3.5" width="54" height="47" fill="none"/>
        </g>
      </g>
      <g id="Group_12" data-name="Group 12" transform="translate(242)">
        <g id="Ellipse_1-9" data-name="Ellipse 1" transform="translate(124 22)" fill="#d01e25" stroke="#c5cfd1" stroke-width="7">
          <ellipse cx="30.5" cy="28.5" rx="30.5" ry="28.5" stroke="none"/>
          <ellipse cx="30.5" cy="28.5" rx="27" ry="25" fill="none"/>
        </g>
        <g id="Rectangle_4-9" data-name="Rectangle 4" transform="translate(124 -7)" fill="#d01e25" stroke="#c5cfd1" stroke-width="7">
          <rect width="61" height="54" stroke="none"/>
          <rect x="3.5" y="3.5" width="54" height="47" fill="none"/>
        </g>
      </g>
      <g id="Group_13" data-name="Group 13" transform="translate(458)">
        <g id="Ellipse_1-10" data-name="Ellipse 1" transform="translate(124 22)" fill="#d01e25" stroke="#c5cfd1" stroke-width="7">
          <ellipse cx="30.5" cy="28.5" rx="30.5" ry="28.5" stroke="none"/>
          <ellipse cx="30.5" cy="28.5" rx="27" ry="25" fill="none"/>
        </g>
        <g id="Rectangle_4-10" data-name="Rectangle 4" transform="translate(124 -7)" fill="#d01e25" stroke="#c5cfd1" stroke-width="7">
          <rect width="61" height="54" stroke="none"/>
          <rect x="3.5" y="3.5" width="54" height="47" fill="none"/>
        </g>
      </g>
      <g id="Group_14" data-name="Group 14" transform="translate(350)">
        <g id="Ellipse_1-11" data-name="Ellipse 1" transform="translate(124 22)" fill="#d01e25" stroke="#c5cfd1" stroke-width="7">
          <ellipse cx="30.5" cy="28.5" rx="30.5" ry="28.5" stroke="none"/>
          <ellipse cx="30.5" cy="28.5" rx="27" ry="25" fill="none"/>
        </g>
        <g id="Rectangle_4-11" data-name="Rectangle 4" transform="translate(124 -7)" fill="#d01e25" stroke="#c5cfd1" stroke-width="7">
          <rect width="61" height="54" stroke="none"/>
          <rect x="3.5" y="3.5" width="54" height="47" fill="none"/>
        </g>
      </g>
      <g id="Group_15" data-name="Group 15" transform="translate(404)">
        <g id="Ellipse_1-12" data-name="Ellipse 1" transform="translate(124 22)" fill="#d01e25" stroke="#c5cfd1" stroke-width="7">
          <ellipse cx="30.5" cy="28.5" rx="30.5" ry="28.5" stroke="none"/>
          <ellipse cx="30.5" cy="28.5" rx="27" ry="25" fill="none"/>
        </g>
        <g id="Rectangle_4-12" data-name="Rectangle 4" transform="translate(124 -7)" fill="#d01e25" stroke="#c5cfd1" stroke-width="7">
          <rect width="61" height="54" stroke="none"/>
          <rect x="3.5" y="3.5" width="54" height="47" fill="none"/>
        </g>
      </g>
      <g id="Group_16" data-name="Group 16" transform="translate(620)">
        <g id="Ellipse_1-13" data-name="Ellipse 1" transform="translate(124 22)" fill="#d01e25" stroke="#c5cfd1" stroke-width="7">
          <ellipse cx="30.5" cy="28.5" rx="30.5" ry="28.5" stroke="none"/>
          <ellipse cx="30.5" cy="28.5" rx="27" ry="25" fill="none"/>
        </g>
        <g id="Rectangle_4-13" data-name="Rectangle 4" transform="translate(124 -7)" fill="#d01e25" stroke="#c5cfd1" stroke-width="7">
          <rect width="61" height="54" stroke="none"/>
          <rect x="3.5" y="3.5" width="54" height="47" fill="none"/>
        </g>
      </g>
      <g id="Group_17" data-name="Group 17" transform="translate(512)">
        <g id="Ellipse_1-14" data-name="Ellipse 1" transform="translate(124 22)" fill="#d01e25" stroke="#c5cfd1" stroke-width="7">
          <ellipse cx="30.5" cy="28.5" rx="30.5" ry="28.5" stroke="none"/>
          <ellipse cx="30.5" cy="28.5" rx="27" ry="25" fill="none"/>
        </g>
        <g id="Rectangle_4-14" data-name="Rectangle 4" transform="translate(124 -7)" fill="#d01e25" stroke="#c5cfd1" stroke-width="7">
          <rect width="61" height="54" stroke="none"/>
          <rect x="3.5" y="3.5" width="54" height="47" fill="none"/>
        </g>
      </g>
      <g id="Group_18" data-name="Group 18" transform="translate(566)">
        <g id="Ellipse_1-15" data-name="Ellipse 1" transform="translate(124 22)" fill="#d01e25" stroke="#c5cfd1" stroke-width="7">
          <ellipse cx="30.5" cy="28.5" rx="30.5" ry="28.5" stroke="none"/>
          <ellipse cx="30.5" cy="28.5" rx="27" ry="25" fill="none"/>
        </g>
        <g id="Rectangle_4-15" data-name="Rectangle 4" transform="translate(124 -7)" fill="#d01e25" stroke="#c5cfd1" stroke-width="7">
          <rect width="61" height="54" stroke="none"/>
          <rect x="3.5" y="3.5" width="54" height="47" fill="none"/>
        </g>
      </g>
      <g id="Group_19" data-name="Group 19" transform="translate(782)">
        <g id="Ellipse_1-16" data-name="Ellipse 1" transform="translate(124 22)" fill="#d01e25" stroke="#c5cfd1" stroke-width="7">
          <ellipse cx="30.5" cy="28.5" rx="30.5" ry="28.5" stroke="none"/>
          <ellipse cx="30.5" cy="28.5" rx="27" ry="25" fill="none"/>
        </g>
        <g id="Rectangle_4-16" data-name="Rectangle 4" transform="translate(124 -7)" fill="#d01e25" stroke="#c5cfd1" stroke-width="7">
          <rect width="61" height="54" stroke="none"/>
          <rect x="3.5" y="3.5" width="54" height="47" fill="none"/>
        </g>
      </g>
      <g id="Group_20" data-name="Group 20" transform="translate(674)">
        <g id="Ellipse_1-17" data-name="Ellipse 1" transform="translate(124 22)" fill="#d01e25" stroke="#c5cfd1" stroke-width="7">
          <ellipse cx="30.5" cy="28.5" rx="30.5" ry="28.5" stroke="none"/>
          <ellipse cx="30.5" cy="28.5" rx="27" ry="25" fill="none"/>
        </g>
        <g id="Rectangle_4-17" data-name="Rectangle 4" transform="translate(124 -7)" fill="#d01e25" stroke="#c5cfd1" stroke-width="7">
          <rect width="61" height="54" stroke="none"/>
          <rect x="3.5" y="3.5" width="54" height="47" fill="none"/>
        </g>
      </g>
      <g id="Group_21" data-name="Group 21" transform="translate(728)">
        <g id="Ellipse_1-18" data-name="Ellipse 1" transform="translate(124 22)" fill="#d01e25" stroke="#c5cfd1" stroke-width="7">
          <ellipse cx="30.5" cy="28.5" rx="30.5" ry="28.5" stroke="none"/>
          <ellipse cx="30.5" cy="28.5" rx="27" ry="25" fill="none"/>
        </g>
        <g id="Rectangle_4-18" data-name="Rectangle 4" transform="translate(124 -7)" fill="#d01e25" stroke="#c5cfd1" stroke-width="7">
          <rect width="61" height="54" stroke="none"/>
          <rect x="3.5" y="3.5" width="54" height="47" fill="none"/>
        </g>
      </g>
      <g id="Group_22" data-name="Group 22" transform="translate(890)">
        <g id="Ellipse_1-19" data-name="Ellipse 1" transform="translate(124 22)" fill="#d01e25" stroke="#c5cfd1" stroke-width="7">
          <ellipse cx="30.5" cy="28.5" rx="30.5" ry="28.5" stroke="none"/>
          <ellipse cx="30.5" cy="28.5" rx="27" ry="25" fill="none"/>
        </g>
        <g id="Rectangle_4-19" data-name="Rectangle 4" transform="translate(124 -7)" fill="#d01e25" stroke="#c5cfd1" stroke-width="7">
          <rect width="61" height="54" stroke="none"/>
          <rect x="3.5" y="3.5" width="54" height="47" fill="none"/>
        </g>
      </g>
      <g id="Group_23" data-name="Group 23" transform="translate(836)">
        <g id="Ellipse_1-20" data-name="Ellipse 1" transform="translate(124 22)" fill="#d01e25" stroke="#c5cfd1" stroke-width="7">
          <ellipse cx="30.5" cy="28.5" rx="30.5" ry="28.5" stroke="none"/>
          <ellipse cx="30.5" cy="28.5" rx="27" ry="25" fill="none"/>
        </g>
        <g id="Rectangle_4-20" data-name="Rectangle 4" transform="translate(124 -7)" fill="#d01e25" stroke="#c5cfd1" stroke-width="7">
          <rect width="61" height="54" stroke="none"/>
          <rect x="3.5" y="3.5" width="54" height="47" fill="none"/>
        </g>
      </g>
      <g id="Group_24" data-name="Group 24" transform="translate(1052)">
        <g id="Ellipse_1-21" data-name="Ellipse 1" transform="translate(124 22)" fill="#d01e25" stroke="#c5cfd1" stroke-width="7">
          <ellipse cx="30.5" cy="28.5" rx="30.5" ry="28.5" stroke="none"/>
          <ellipse cx="30.5" cy="28.5" rx="27" ry="25" fill="none"/>
        </g>
        <g id="Rectangle_4-21" data-name="Rectangle 4" transform="translate(124 -7)" fill="#d01e25" stroke="#c5cfd1" stroke-width="7">
          <rect width="61" height="54" stroke="none"/>
          <rect x="3.5" y="3.5" width="54" height="47" fill="none"/>
        </g>
      </g>
      <g id="Group_25" data-name="Group 25" transform="translate(944)">
        <g id="Ellipse_1-22" data-name="Ellipse 1" transform="translate(124 22)" fill="#d01e25" stroke="#c5cfd1" stroke-width="7">
          <ellipse cx="30.5" cy="28.5" rx="30.5" ry="28.5" stroke="none"/>
          <ellipse cx="30.5" cy="28.5" rx="27" ry="25" fill="none"/>
        </g>
        <g id="Rectangle_4-22" data-name="Rectangle 4" transform="translate(124 -7)" fill="#d01e25" stroke="#c5cfd1" stroke-width="7">
          <rect width="61" height="54" stroke="none"/>
          <rect x="3.5" y="3.5" width="54" height="47" fill="none"/>
        </g>
      </g>
      <g id="Group_26" data-name="Group 26" transform="translate(998)">
        <g id="Ellipse_1-23" data-name="Ellipse 1" transform="translate(124 22)" fill="#d01e25" stroke="#c5cfd1" stroke-width="7">
          <ellipse cx="30.5" cy="28.5" rx="30.5" ry="28.5" stroke="none"/>
          <ellipse cx="30.5" cy="28.5" rx="27" ry="25" fill="none"/>
        </g>
        <g id="Rectangle_4-23" data-name="Rectangle 4" transform="translate(124 -7)" fill="#d01e25" stroke="#c5cfd1" stroke-width="7">
          <rect width="61" height="54" stroke="none"/>
          <rect x="3.5" y="3.5" width="54" height="47" fill="none"/>
        </g>
      </g>
      <g id="Group_27" data-name="Group 27" transform="translate(1106)">
        <g id="Ellipse_1-24" data-name="Ellipse 1" transform="translate(124 22)" fill="#d01e25" stroke="#c5cfd1" stroke-width="7">
          <ellipse cx="30.5" cy="28.5" rx="30.5" ry="28.5" stroke="none"/>
          <ellipse cx="30.5" cy="28.5" rx="27" ry="25" fill="none"/>
        </g>
        <g id="Rectangle_4-24" data-name="Rectangle 4" transform="translate(124 -7)" fill="#d01e25" stroke="#c5cfd1" stroke-width="7">
          <rect width="61" height="54" stroke="none"/>
          <rect x="3.5" y="3.5" width="54" height="47" fill="none"/>
        </g>
      </g>
    </g>
  </g>
</svg>
