<svg xmlns="http://www.w3.org/2000/svg" xmlns:xlink="http://www.w3.org/1999/xlink" width="80vw" viewBox="0 0 1280 800">
  <defs>
    <clipPath id="clip-Web_1280_4">
      <rect width="1280" height="800"/>
    </clipPath>
  </defs>
  <g id="Web_1280_4" data-name="Web 1280 – 4" clip-path="url(#clip-Web_1280_4)">
    <rect width="1280" height="800" fill="#fff"/>
    <rect id="Rectangle_1" data-name="Rectangle 1" width="1280" height="800" fill="#1f2830"/>
    <text id="rocketshoes_Starship_punyhalfgod_kree" data-name="rocketshoes
Starship
punyhalfgod
kree" transform="translate(1201 396)" fill="#c5cfd1" font-size="80" font-family="Marvel-Regular, Marvel"><tspan x="-313.6" y="0">ROCKETSHOES</tspan><tspan x="-213.04" y="104">STARSHIP</tspan><tspan x="-321.84" y="208">PUNYHALFGOD</tspan><tspan x="-102.32" y="312">KREE</tspan></text>
    <rect id="Rectangle_2" data-name="Rectangle 2" width="42" height="800" transform="translate(367)" fill="#5e6774"/>
    <g id="PinClipart.com_ants-clipart_131672" transform="translate(-1.102 1286.917)">
      <path id="Path_4" data-name="Path 4" d="M629.738-1164.974c-3.9,1.8-20.878,14.1-31.373,22.72a462.344,462.344,0,0,0-82.888,89.516l-3.093,4.419-2.946-1.068c-13.182-4.824-30.526-5.45-43.745-1.62-15.8,4.6-26.4,15.466-27.875,28.574a34.749,34.749,0,0,0,1.657,14.177c.147.368-.773-.074-2.32-1.068-6.923-4.492-14.324-7.217-24.6-9.132-3.9-.7-5.781-.81-15.65-.884l-11.231-.037-5.56-16.9c-5.892-17.859-7.806-23.235-8.985-25.518-1.952-3.9-6.333-4.861-10.089-2.283-3.388,2.357-8.837,10.2-11.047,15.981-3.461,8.911-6.3,21.5-8.58,38l-.957,7.107-3.866,3.056a81.811,81.811,0,0,0-6.481,5.892l-2.651,2.835-18.927-21.91c-10.421-12.078-19.442-22.462-20.068-23.051a16.894,16.894,0,0,0-3.83-2.43,12.558,12.558,0,0,0-5.781-1.436c-2.762-.147-3.277-.074-5.118.81a10.976,10.976,0,0,0-5.229,5.708c-.552,1.547-35.5,63.482-36.2,64.255-.184.147-2.725-1.473-5.708-3.645-11.047-8.027-19.59-13.146-23.861-14.25-1.657-.442-1.878-.405-3.5.442-4.235,2.246-18.706,17.638-39.106,41.61C139.3-920.619,81.191-849.552,76.956-843.4a69.309,69.309,0,0,1-9.905,10.347,74.693,74.693,0,0,1-31.852,14.8c-7.144,1.436-12.041,1.768-21.431,1.583-9.279-.221-10.089-.11-11.525,1.731a5.625,5.625,0,0,0-1.031,4.382,6.725,6.725,0,0,0,3.093,3.572c1.8.7,12.078,1.1,18.6.7,23.125-1.326,41.978-9.279,56.412-23.824a66.679,66.679,0,0,0,5.523-6.444c2.43-3.424,4.087-5.523,17.454-22.02,45.476-56.191,86.828-105.239,97.543-115.77,1.694-1.62,2.357-2.1,2.946-1.915,1.178.405,10.126,6.37,17.343,11.636,4.9,3.535,6.665,5.045,6.481,5.45-.11.295-2.246,4.161-4.75,8.543l-4.529,7.954-7.549,7.549c-13.4,13.4-22.793,26.144-30.452,41.2-6.628,13.035-10.053,23.972-10.936,34.8-.258,3.13-.331,3.424-2.688,7.549-1.326,2.357-2.762,4.934-3.167,5.708-1.252,2.5-5.192,6.113-8.285,7.622-4.6,2.246-6.7,2.651-13.808,2.688a51.231,51.231,0,0,1-10.016-.7c-3.682-.663-3.83-.663-5.266-.037a6.106,6.106,0,0,0-2.209,1.841c-1.51,2.43-.589,6.113,1.767,7.328,1.51.773,6.665,1.657,11.71,2.025,15.429,1.068,26.623-3.572,34.171-14.1.442-.663.589-.516,1.841,1.915,4.271,8.064,13.256,13.588,24.966,15.318,7.365,1.1,18.78.663,27.727-1.1,16.165-3.167,35.313-10.568,51.368-19.847a225.253,225.253,0,0,0,20.694-13.919c17.38-13.588,31.3-30.305,39.363-47.207,1.473-3.13,1.767-3.535,1.952-2.762.479,1.988,3.24,17.675,4.971,28.169,4.529,27.065,9.427,61.052,14.545,100.452.847,6.554.957,7.033,2.393,9.832,4.492,8.69,12.63,21.394,16.9,26.365,2.5,2.909,5.3,5.118,6.96,5.523a5.425,5.425,0,0,0,6-3.388c.81-2.43.258-3.609-3.277-7.107-3.424-3.388-8.469-10.568-13.624-19.516-4.64-7.954-4.2-6.481-6.113-21.247-7.806-60.868-16.018-112.015-21.909-136.575-.921-3.977-1.031-5.082-1.031-10.237,0-3.314.184-5.781.368-5.781a3.514,3.514,0,0,1,1.031.368c1.547.81,10.789,2.946,16.018,3.645a89.515,89.515,0,0,0,20.179.368c2.467-.258,5.118-.442,5.928-.479l1.436-.037,6.7,14.214c20.437,43.156,30.379,65.765,34.245,77.659,2.651,8.064,3.535,10.237,5.523,13.256a17.065,17.065,0,0,0,6.26,6.076c7.033,4.235,21.578,5.708,45,4.6,7.77-.368,8.8-.626,10.089-2.688a5.525,5.525,0,0,0-.626-6.186,7.333,7.333,0,0,0-1.878-1.473c-.479-.184-5.928-.11-12.63.11-21.431.736-31.3-.516-35.865-4.566-2.246-1.952-3.388-4.271-5.744-11.71-3.719-11.783-12.372-31.594-32.956-75.339-4.161-8.837-7.512-16.128-7.438-16.239.479-.442,5.6-1.62,5.708-1.289a44.761,44.761,0,0,0,5.45,7.291c3.756,3.793,6.665,4.124,12.777,1.473a24.212,24.212,0,0,1,5.118-1.694c1.62,0,3.24-.921,5.266-2.946l1.768-1.8-1.583-2.43a11.84,11.84,0,0,0-2.614-2.983c-2.136-1.1-5.892-.442-11.71,2.1l-1.988.847-1.436-1.583a7.987,7.987,0,0,1-1.4-1.915,25.8,25.8,0,0,1,4.456-2.578,78.283,78.283,0,0,0,14.655-9.169c3.019-2.43,3.793-2.872,5.376-3.093,24.745-3.424,37.08-4.235,40.91-2.651l1.547.626v2.688c0,2.283.295,3.609,2.025,8.727,8.211,24.561,21.836,57.627,31.226,75.744,6.591,12.777,11.82,20.694,16.9,25.849a21.227,21.227,0,0,0,6.444,4.861c6.775,3.461,13,4.971,18.375,4.529a101.155,101.155,0,0,0,10.715-2.209c4.271-1.068,9.279-2.136,11.194-2.357a22.076,22.076,0,0,0,4.529-.994,5.093,5.093,0,0,0,2.5-4.64,3.781,3.781,0,0,0-1.1-3.019c-1.694-1.878-3.093-2.246-7.144-1.731a103.276,103.276,0,0,0-14.324,3.13c-8.322,2.173-12.741,1.8-19.516-1.694a23.5,23.5,0,0,1-4.566-3.2c-6.7-6.7-16.128-24.119-27.8-51.4-6.554-15.318-14.066-34.8-17.454-45.218l-1.767-5.45.479-2.872c.589-3.535.147-5.3-1.768-7.291-1.362-1.436-5.045-3.277-8.69-4.419-4.087-1.252-16.975-.773-33.177,1.215l-1.915.221,1.289-2.651a26.871,26.871,0,0,0,2.835-12.557l.037-4.308,1.768,1.547a77.374,77.374,0,0,0,26.4,15.06c4.9,1.694,6.959,1.988,16.092,2.541,11.489.663,29.164-.405,34.171-2.1,3.314-1.142,6.555-2.983,12.151-7,8.653-6.186,12.593-7.806,20.068-8.248l4.235-.221-5.155-2.651c-3.019-1.547-4.934-2.688-4.6-2.8.295-.11,3.13-.589,6.26-1.031s6-.921,6.37-1.031c.479-.184-1.031-1.178-5.45-3.719-5.413-3.093-6.3-3.756-8.285-6.039a16.347,16.347,0,0,1-2.614-3.866,31.754,31.754,0,0,0-1.62-3.719c-.7-1.326-1.8-3.646-2.5-5.155a46.264,46.264,0,0,0-3.314-5.855c-1.178-1.694-2.1-3.167-2.1-3.24,0-.037,1.878-.11,4.2-.11,18.08,0,40.984-6.333,72.467-20.031,28.8-12.52,60.463-19.442,100.894-22.057,3.719-.258,5.818-2.173,5.818-5.339a5.9,5.9,0,0,0-2.872-4.234c-1.4-.81-4.677-.884-12.777-.258-26.255,2.1-51.441,6.923-73.461,14.066-8.469,2.762-12.3,4.235-24.855,9.574-22.977,9.795-38.443,14.692-54.313,17.086-3.277.516-6.775.663-15.281.7l-11.047.037-2.725-1.8c-1.473-.994-3.756-2.43-5.045-3.167l-2.357-1.362,3.02-4.235a428.807,428.807,0,0,1,45.955-54.571c20.068-20.4,40.394-37.633,59.211-50.263,5.708-3.83,6.7-4.9,6.7-7.254A5.031,5.031,0,0,0,629.738-1164.974Zm-264.976,115.4c.994,2.541,10.421,31.483,10.421,31.925,0,.184-.442.442-.994.589a132.519,132.519,0,0,0-16.938,5.3c-3.13,1.252-5.266,1.952-5.266,1.694s.516-3.5,1.1-7.217c1.988-11.894,4.382-21.8,6.665-27.323,1.068-2.578,3.609-6.923,4.05-6.923A6.625,6.625,0,0,1,364.762-1049.572ZM280.4-1029.1c.589.368,10.163,11.157,21.247,23.935l20.105,23.272-.7,1.8a34.875,34.875,0,0,0-1.215,4.308c-.368,1.731-.663,2.467-1.031,2.43-.295-.037-1.988-.479-3.83-1.031a63.766,63.766,0,0,0-23.014-2.025c-14.913,1.215-29.458,5.634-44.519,13.477l-4.566,2.357-1.215-.921c-1.142-.884-1.215-1.031-.736-1.767,2.283-3.609,36.491-64.366,36.786-65.323C278.155-1029.983,278.744-1030.093,280.4-1029.1Z" transform="translate(0)" fill="#9d162c"/>
    </g>
    <g id="Group_3" data-name="Group 3" transform="translate(-449.232 -108)">
      <path id="Path_6" data-name="Path 6" d="M69.708,24.15l5.079-16-2.748-.708c-.071-.016-7.355-1.879-16.932-3.715C42.2,1.254,31.455,0,23.191,0,13.6,0,7.529,1.722,4.636,5.268A8.672,8.672,0,0,0,3,12.788c1.321,6.428.134,15.025-1.12,24.126C.886,44.14-.145,51.617.017,58.6c.189,8.228,2.06,14.557,5.716,19.35C10.246,83.861,17.3,87.368,27.3,88.673a71.405,71.405,0,0,0,9.16.629c12.9,0,22.587-4.191,28.779-12.458a38.758,38.758,0,0,0,6.789-16.739,72.126,72.126,0,0,0,.716-17.388A103.607,103.607,0,0,0,69.708,24.15Z" transform="translate(770.999 395.548) rotate(-16)" fill="#747474"/>
      <rect id="Rectangle_3" data-name="Rectangle 3" width="5.366" height="19.547" transform="translate(810.808 415.594) rotate(-16)" fill="#f6bb42"/>
      <path id="Path_7" data-name="Path 7" d="M21.464,0H5.366L0,5.366V26.831H26.829V5.366Zm0,21.465H5.366V7.587L7.591,5.366H19.243l2.221,2.221Z" transform="translate(804.928 434.028) rotate(-16)" fill="#ffce54"/>
      <path id="Path_8" data-name="Path 8" d="M0,0V40.72l8.048,5.366L16.1,40.72V0ZM8.048,32.669a2.683,2.683,0,1,1,2.685-2.681A2.682,2.682,0,0,1,8.048,32.669Zm0-8.047a2.683,2.683,0,1,1,2.685-2.685A2.685,2.685,0,0,1,8.048,24.621Z" transform="translate(848.243 390.412) rotate(-16)" fill="#434a54"/>
      <path id="Path_9" data-name="Path 9" d="M120.767,11.982c-1.294-3.9-4.049-10.63-7.961-11.782a4.909,4.909,0,0,0-1.4-.2c-2.666,0-4.977,2.032-8.181,4.839A64.367,64.367,0,0,1,87.718,15.556c-8.566,4.073-18.787,6.137-30.379,6.137-12.32,0-26.54-2.315-42.253-6.88a13.348,13.348,0,0,0-3.679-.558A9.186,9.186,0,0,0,4.22,17.569C1.366,20.91-.054,26.76,0,34.953a80.281,80.281,0,0,0,.834,10.9l.067.413.189.373c.146.287,3.66,7.135,12.922,13.921a65.032,65.032,0,0,0,18.5,9.3A93.163,93.163,0,0,0,61.2,74.041a155.707,155.707,0,0,0,36.217-4.71c9.1-2.2,16.016-6.978,20.56-14.215,3.723-5.928,5.716-13.264,5.932-21.795A64.463,64.463,0,0,0,120.767,11.982Z" transform="translate(742.334 362.658) rotate(-16)" fill="#747474"/>
      <path id="Path_10" data-name="Path 10" d="M.053,37.276C.336,30.664,1.731,25.848,4.22,22.935a9.186,9.186,0,0,1,7.186-3.314,13.358,13.358,0,0,1,3.679.558c15.713,4.564,29.933,6.88,42.253,6.88,11.591,0,21.813-2.064,30.379-6.137A64.375,64.375,0,0,0,103.23,10.206c3.2-2.807,5.516-4.839,8.181-4.839a4.909,4.909,0,0,1,1.4.2c3.912,1.152,6.667,7.878,7.961,11.782a64.227,64.227,0,0,1,3.1,17.152c.016-.389.031-.782.043-1.179a64.448,64.448,0,0,0-3.141-21.339c-1.294-3.9-4.049-10.63-7.961-11.782a4.909,4.909,0,0,0-1.4-.2c-2.666,0-4.977,2.032-8.181,4.839A64.368,64.368,0,0,1,87.717,15.556c-8.566,4.073-18.787,6.137-30.379,6.137-12.32,0-26.54-2.315-42.253-6.88a13.348,13.348,0,0,0-3.679-.558A9.186,9.186,0,0,0,4.22,17.569C1.366,20.911-.054,26.76,0,34.953.006,35.751.025,36.525.053,37.276Z" transform="translate(742.333 362.658) rotate(-16)" fill="#fff" opacity="0.1"/>
      <path id="Path_11" data-name="Path 11" d="M118.95,1.3l-21.8,11.236-21.634,5.48H54.837l-17.7-2.229-16.1-5.225S5.928,3.982,5.425,3.648C5.17,3.475,2.516,2.552,0,1.691c.083.653.146,1.042.153,1.1L.22,3.2l.189.373c.146.287,3.66,7.135,12.922,13.921a65.031,65.031,0,0,0,18.5,9.3,93.163,93.163,0,0,0,28.682,4.183,155.706,155.706,0,0,0,36.217-4.71c9.1-2.2,16.016-6.978,20.56-14.215A37.663,37.663,0,0,0,122.1,0Z" transform="translate(754.859 403.865) rotate(-16)" fill="#5a5a5a"/>
      <g id="Group_2" data-name="Group 2" transform="translate(777.182 405.398) rotate(-16)">
        <path id="Path_12" data-name="Path 12" d="M5.465,7.446a25.346,25.346,0,0,1,1.254-5.57L1.691,0A30.859,30.859,0,0,0,.138,6.77a19.35,19.35,0,0,0,.173,5.818q3,.731,6.137,1.258C5.3,12.069,5.256,9.466,5.465,7.446Z" transform="translate(16.098 8.161)" fill="#434a54"/>
        <path id="Path_13" data-name="Path 13" d="M6.717,1.879,1.689,0A30.949,30.949,0,0,0,.136,6.774a18.089,18.089,0,0,0,.491,7.1q2.937.177,5.968.2C5.3,12.293,5.243,9.557,5.463,7.45A25.35,25.35,0,0,1,6.717,1.879Z" transform="translate(32.198 9.278)" fill="#434a54"/>
        <path id="Path_14" data-name="Path 14" d="M5.465,7.45a25.362,25.362,0,0,1,1.254-5.57L1.691,0A30.684,30.684,0,0,0,.138,6.774a18.2,18.2,0,0,0,.44,6.939c1.816-.138,3.648-.307,5.508-.515A11.517,11.517,0,0,1,5.465,7.45Z" transform="translate(48.292 9.278)" fill="#434a54"/>
        <path id="Path_15" data-name="Path 15" d="M6.714,1.879,1.69,0A30.93,30.93,0,0,0,.137,6.774a17.268,17.268,0,0,0,.751,7.874q2.671-.489,5.4-1.065A10.815,10.815,0,0,1,5.463,7.45,25.757,25.757,0,0,1,6.714,1.879Z" transform="translate(64.392 6.203)" fill="#434a54"/>
        <path id="Path_16" data-name="Path 16" d="M5.461,7.45a25.805,25.805,0,0,1,1.254-5.57L1.691,0A30.679,30.679,0,0,0,.138,6.773c-.425,3.916.133,7.2,1.612,9.683A33.061,33.061,0,0,0,6.483,13.9C5.3,12.124,5.253,9.494,5.461,7.45Z" transform="translate(80.489)" fill="#434a54"/>
        <path id="Path_17" data-name="Path 17" d="M5.464,7.446a25.362,25.362,0,0,1,1.254-5.57L1.69,0A30.864,30.864,0,0,0,.137,6.77a20.252,20.252,0,0,0,.039,5.04,67.2,67.2,0,0,0,6.891,3.1l.146-.165C5.319,13.063,5.217,9.847,5.464,7.446Z" transform="translate(0 2.937)" fill="#434a54"/>
      </g>
      <path id="Path_18" data-name="Path 18" d="M121.8,8.432A46.3,46.3,0,0,0,123.455,0a66.611,66.611,0,0,1-14.078,10.06,87.152,87.152,0,0,1-19.035,7.6,103.1,103.1,0,0,1-26.931,3.456,120.384,120.384,0,0,1-27.428-3.094,105.615,105.615,0,0,1-19.971-6.809A76.056,76.056,0,0,1,0,1.588C.236,5.26.649,7.894.672,8.044l.067.413.189.373c.008.02.039.075.083.161a91.984,91.984,0,0,0,12.525,6.986A110.776,110.776,0,0,0,34.591,23.2a125.575,125.575,0,0,0,28.82,3.274A108.389,108.389,0,0,0,91.93,22.786,92.369,92.369,0,0,0,112.2,14.632,79.951,79.951,0,0,0,121.8,8.432Z" transform="translate(752.911 398.956) rotate(-16)" fill="#656d78"/>
    </g>
    <g id="Group_29" data-name="Group 29">
      <g id="Group_4" data-name="Group 4" transform="translate(-28)">
        <g id="Ellipse_1" data-name="Ellipse 1" transform="translate(124 22)" fill="#d01e25" stroke="#c5cfd1" stroke-width="7">
          <ellipse cx="30.5" cy="28.5" rx="30.5" ry="28.5" stroke="none"/>
          <ellipse cx="30.5" cy="28.5" rx="27" ry="25" fill="none"/>
        </g>
        <g id="Rectangle_4" data-name="Rectangle 4" transform="translate(124 -7)" fill="#d01e25" stroke="#c5cfd1" stroke-width="7">
          <rect width="61" height="54" stroke="none"/>
          <rect x="3.5" y="3.5" width="54" height="47" fill="none"/>
        </g>
      </g>
      <g id="Group_5" data-name="Group 5" transform="translate(-136)">
        <g id="Ellipse_1-2" data-name="Ellipse 1" transform="translate(124 22)" fill="#d01e25" stroke="#c5cfd1" stroke-width="7">
          <ellipse cx="30.5" cy="28.5" rx="30.5" ry="28.5" stroke="none"/>
          <ellipse cx="30.5" cy="28.5" rx="27" ry="25" fill="none"/>
        </g>
        <g id="Rectangle_4-2" data-name="Rectangle 4" transform="translate(124 -7)" fill="#d01e25" stroke="#c5cfd1" stroke-width="7">
          <rect width="61" height="54" stroke="none"/>
          <rect x="3.5" y="3.5" width="54" height="47" fill="none"/>
        </g>
      </g>
      <g id="Group_6" data-name="Group 6" transform="translate(-82)">
        <g id="Ellipse_1-3" data-name="Ellipse 1" transform="translate(124 22)" fill="#d01e25" stroke="#c5cfd1" stroke-width="7">
          <ellipse cx="30.5" cy="28.5" rx="30.5" ry="28.5" stroke="none"/>
          <ellipse cx="30.5" cy="28.5" rx="27" ry="25" fill="none"/>
        </g>
        <g id="Rectangle_4-3" data-name="Rectangle 4" transform="translate(124 -7)" fill="#d01e25" stroke="#c5cfd1" stroke-width="7">
          <rect width="61" height="54" stroke="none"/>
          <rect x="3.5" y="3.5" width="54" height="47" fill="none"/>
        </g>
      </g>
      <g id="Group_7" data-name="Group 7" transform="translate(134)">
        <g id="Ellipse_1-4" data-name="Ellipse 1" transform="translate(124 22)" fill="#d01e25" stroke="#c5cfd1" stroke-width="7">
          <ellipse cx="30.5" cy="28.5" rx="30.5" ry="28.5" stroke="none"/>
          <ellipse cx="30.5" cy="28.5" rx="27" ry="25" fill="none"/>
        </g>
        <g id="Rectangle_4-4" data-name="Rectangle 4" transform="translate(124 -7)" fill="#d01e25" stroke="#c5cfd1" stroke-width="7">
          <rect width="61" height="54" stroke="none"/>
          <rect x="3.5" y="3.5" width="54" height="47" fill="none"/>
        </g>
      </g>
      <g id="Group_8" data-name="Group 8" transform="translate(26)">
        <g id="Ellipse_1-5" data-name="Ellipse 1" transform="translate(124 22)" fill="#d01e25" stroke="#c5cfd1" stroke-width="7">
          <ellipse cx="30.5" cy="28.5" rx="30.5" ry="28.5" stroke="none"/>
          <ellipse cx="30.5" cy="28.5" rx="27" ry="25" fill="none"/>
        </g>
        <g id="Rectangle_4-5" data-name="Rectangle 4" transform="translate(124 -7)" fill="#d01e25" stroke="#c5cfd1" stroke-width="7">
          <rect width="61" height="54" stroke="none"/>
          <rect x="3.5" y="3.5" width="54" height="47" fill="none"/>
        </g>
      </g>
      <g id="Group_9" data-name="Group 9" transform="translate(80)">
        <g id="Ellipse_1-6" data-name="Ellipse 1" transform="translate(124 22)" fill="#d01e25" stroke="#c5cfd1" stroke-width="7">
          <ellipse cx="30.5" cy="28.5" rx="30.5" ry="28.5" stroke="none"/>
          <ellipse cx="30.5" cy="28.5" rx="27" ry="25" fill="none"/>
        </g>
        <g id="Rectangle_4-6" data-name="Rectangle 4" transform="translate(124 -7)" fill="#d01e25" stroke="#c5cfd1" stroke-width="7">
          <rect width="61" height="54" stroke="none"/>
          <rect x="3.5" y="3.5" width="54" height="47" fill="none"/>
        </g>
      </g>
      <g id="Group_10" data-name="Group 10" transform="translate(296)">
        <g id="Ellipse_1-7" data-name="Ellipse 1" transform="translate(124 22)" fill="#d01e25" stroke="#c5cfd1" stroke-width="7">
          <ellipse cx="30.5" cy="28.5" rx="30.5" ry="28.5" stroke="none"/>
          <ellipse cx="30.5" cy="28.5" rx="27" ry="25" fill="none"/>
        </g>
        <g id="Rectangle_4-7" data-name="Rectangle 4" transform="translate(124 -7)" fill="#d01e25" stroke="#c5cfd1" stroke-width="7">
          <rect width="61" height="54" stroke="none"/>
          <rect x="3.5" y="3.5" width="54" height="47" fill="none"/>
        </g>
      </g>
      <g id="Group_11" data-name="Group 11" transform="translate(188)">
        <g id="Ellipse_1-8" data-name="Ellipse 1" transform="translate(124 22)" fill="#d01e25" stroke="#c5cfd1" stroke-width="7">
          <ellipse cx="30.5" cy="28.5" rx="30.5" ry="28.5" stroke="none"/>
          <ellipse cx="30.5" cy="28.5" rx="27" ry="25" fill="none"/>
        </g>
        <g id="Rectangle_4-8" data-name="Rectangle 4" transform="translate(124 -7)" fill="#d01e25" stroke="#c5cfd1" stroke-width="7">
          <rect width="61" height="54" stroke="none"/>
          <rect x="3.5" y="3.5" width="54" height="47" fill="none"/>
        </g>
      </g>
      <g id="Group_12" data-name="Group 12" transform="translate(242)">
        <g id="Ellipse_1-9" data-name="Ellipse 1" transform="translate(124 22)" fill="#d01e25" stroke="#c5cfd1" stroke-width="7">
          <ellipse cx="30.5" cy="28.5" rx="30.5" ry="28.5" stroke="none"/>
          <ellipse cx="30.5" cy="28.5" rx="27" ry="25" fill="none"/>
        </g>
        <g id="Rectangle_4-9" data-name="Rectangle 4" transform="translate(124 -7)" fill="#d01e25" stroke="#c5cfd1" stroke-width="7">
          <rect width="61" height="54" stroke="none"/>
          <rect x="3.5" y="3.5" width="54" height="47" fill="none"/>
        </g>
      </g>
      <g id="Group_13" data-name="Group 13" transform="translate(458)">
        <g id="Ellipse_1-10" data-name="Ellipse 1" transform="translate(124 22)" fill="#d01e25" stroke="#c5cfd1" stroke-width="7">
          <ellipse cx="30.5" cy="28.5" rx="30.5" ry="28.5" stroke="none"/>
          <ellipse cx="30.5" cy="28.5" rx="27" ry="25" fill="none"/>
        </g>
        <g id="Rectangle_4-10" data-name="Rectangle 4" transform="translate(124 -7)" fill="#d01e25" stroke="#c5cfd1" stroke-width="7">
          <rect width="61" height="54" stroke="none"/>
          <rect x="3.5" y="3.5" width="54" height="47" fill="none"/>
        </g>
      </g>
      <g id="Group_14" data-name="Group 14" transform="translate(350)">
        <g id="Ellipse_1-11" data-name="Ellipse 1" transform="translate(124 22)" fill="#d01e25" stroke="#c5cfd1" stroke-width="7">
          <ellipse cx="30.5" cy="28.5" rx="30.5" ry="28.5" stroke="none"/>
          <ellipse cx="30.5" cy="28.5" rx="27" ry="25" fill="none"/>
        </g>
        <g id="Rectangle_4-11" data-name="Rectangle 4" transform="translate(124 -7)" fill="#d01e25" stroke="#c5cfd1" stroke-width="7">
          <rect width="61" height="54" stroke="none"/>
          <rect x="3.5" y="3.5" width="54" height="47" fill="none"/>
        </g>
      </g>
      <g id="Group_15" data-name="Group 15" transform="translate(404)">
        <g id="Ellipse_1-12" data-name="Ellipse 1" transform="translate(124 22)" fill="#d01e25" stroke="#c5cfd1" stroke-width="7">
          <ellipse cx="30.5" cy="28.5" rx="30.5" ry="28.5" stroke="none"/>
          <ellipse cx="30.5" cy="28.5" rx="27" ry="25" fill="none"/>
        </g>
        <g id="Rectangle_4-12" data-name="Rectangle 4" transform="translate(124 -7)" fill="#d01e25" stroke="#c5cfd1" stroke-width="7">
          <rect width="61" height="54" stroke="none"/>
          <rect x="3.5" y="3.5" width="54" height="47" fill="none"/>
        </g>
      </g>
      <g id="Group_16" data-name="Group 16" transform="translate(620)">
        <g id="Ellipse_1-13" data-name="Ellipse 1" transform="translate(124 22)" fill="#d01e25" stroke="#c5cfd1" stroke-width="7">
          <ellipse cx="30.5" cy="28.5" rx="30.5" ry="28.5" stroke="none"/>
          <ellipse cx="30.5" cy="28.5" rx="27" ry="25" fill="none"/>
        </g>
        <g id="Rectangle_4-13" data-name="Rectangle 4" transform="translate(124 -7)" fill="#d01e25" stroke="#c5cfd1" stroke-width="7">
          <rect width="61" height="54" stroke="none"/>
          <rect x="3.5" y="3.5" width="54" height="47" fill="none"/>
        </g>
      </g>
      <g id="Group_17" data-name="Group 17" transform="translate(512)">
        <g id="Ellipse_1-14" data-name="Ellipse 1" transform="translate(124 22)" fill="#d01e25" stroke="#c5cfd1" stroke-width="7">
          <ellipse cx="30.5" cy="28.5" rx="30.5" ry="28.5" stroke="none"/>
          <ellipse cx="30.5" cy="28.5" rx="27" ry="25" fill="none"/>
        </g>
        <g id="Rectangle_4-14" data-name="Rectangle 4" transform="translate(124 -7)" fill="#d01e25" stroke="#c5cfd1" stroke-width="7">
          <rect width="61" height="54" stroke="none"/>
          <rect x="3.5" y="3.5" width="54" height="47" fill="none"/>
        </g>
      </g>
      <g id="Group_18" data-name="Group 18" transform="translate(566)">
        <g id="Ellipse_1-15" data-name="Ellipse 1" transform="translate(124 22)" fill="#d01e25" stroke="#c5cfd1" stroke-width="7">
          <ellipse cx="30.5" cy="28.5" rx="30.5" ry="28.5" stroke="none"/>
          <ellipse cx="30.5" cy="28.5" rx="27" ry="25" fill="none"/>
        </g>
        <g id="Rectangle_4-15" data-name="Rectangle 4" transform="translate(124 -7)" fill="#d01e25" stroke="#c5cfd1" stroke-width="7">
          <rect width="61" height="54" stroke="none"/>
          <rect x="3.5" y="3.5" width="54" height="47" fill="none"/>
        </g>
      </g>
      <g id="Group_19" data-name="Group 19" transform="translate(782)">
        <g id="Ellipse_1-16" data-name="Ellipse 1" transform="translate(124 22)" fill="#d01e25" stroke="#c5cfd1" stroke-width="7">
          <ellipse cx="30.5" cy="28.5" rx="30.5" ry="28.5" stroke="none"/>
          <ellipse cx="30.5" cy="28.5" rx="27" ry="25" fill="none"/>
        </g>
        <g id="Rectangle_4-16" data-name="Rectangle 4" transform="translate(124 -7)" fill="#d01e25" stroke="#c5cfd1" stroke-width="7">
          <rect width="61" height="54" stroke="none"/>
          <rect x="3.5" y="3.5" width="54" height="47" fill="none"/>
        </g>
      </g>
      <g id="Group_20" data-name="Group 20" transform="translate(674)">
        <g id="Ellipse_1-17" data-name="Ellipse 1" transform="translate(124 22)" fill="#d01e25" stroke="#c5cfd1" stroke-width="7">
          <ellipse cx="30.5" cy="28.5" rx="30.5" ry="28.5" stroke="none"/>
          <ellipse cx="30.5" cy="28.5" rx="27" ry="25" fill="none"/>
        </g>
        <g id="Rectangle_4-17" data-name="Rectangle 4" transform="translate(124 -7)" fill="#d01e25" stroke="#c5cfd1" stroke-width="7">
          <rect width="61" height="54" stroke="none"/>
          <rect x="3.5" y="3.5" width="54" height="47" fill="none"/>
        </g>
      </g>
      <g id="Group_21" data-name="Group 21" transform="translate(728)">
        <g id="Ellipse_1-18" data-name="Ellipse 1" transform="translate(124 22)" fill="#d01e25" stroke="#c5cfd1" stroke-width="7">
          <ellipse cx="30.5" cy="28.5" rx="30.5" ry="28.5" stroke="none"/>
          <ellipse cx="30.5" cy="28.5" rx="27" ry="25" fill="none"/>
        </g>
        <g id="Rectangle_4-18" data-name="Rectangle 4" transform="translate(124 -7)" fill="#d01e25" stroke="#c5cfd1" stroke-width="7">
          <rect width="61" height="54" stroke="none"/>
          <rect x="3.5" y="3.5" width="54" height="47" fill="none"/>
        </g>
      </g>
      <g id="Group_22" data-name="Group 22" transform="translate(890)">
        <g id="Ellipse_1-19" data-name="Ellipse 1" transform="translate(124 22)" fill="#d01e25" stroke="#c5cfd1" stroke-width="7">
          <ellipse cx="30.5" cy="28.5" rx="30.5" ry="28.5" stroke="none"/>
          <ellipse cx="30.5" cy="28.5" rx="27" ry="25" fill="none"/>
        </g>
        <g id="Rectangle_4-19" data-name="Rectangle 4" transform="translate(124 -7)" fill="#d01e25" stroke="#c5cfd1" stroke-width="7">
          <rect width="61" height="54" stroke="none"/>
          <rect x="3.5" y="3.5" width="54" height="47" fill="none"/>
        </g>
      </g>
      <g id="Group_23" data-name="Group 23" transform="translate(836)">
        <g id="Ellipse_1-20" data-name="Ellipse 1" transform="translate(124 22)" fill="#d01e25" stroke="#c5cfd1" stroke-width="7">
          <ellipse cx="30.5" cy="28.5" rx="30.5" ry="28.5" stroke="none"/>
          <ellipse cx="30.5" cy="28.5" rx="27" ry="25" fill="none"/>
        </g>
        <g id="Rectangle_4-20" data-name="Rectangle 4" transform="translate(124 -7)" fill="#d01e25" stroke="#c5cfd1" stroke-width="7">
          <rect width="61" height="54" stroke="none"/>
          <rect x="3.5" y="3.5" width="54" height="47" fill="none"/>
        </g>
      </g>
      <g id="Group_24" data-name="Group 24" transform="translate(1052)">
        <g id="Ellipse_1-21" data-name="Ellipse 1" transform="translate(124 22)" fill="#d01e25" stroke="#c5cfd1" stroke-width="7">
          <ellipse cx="30.5" cy="28.5" rx="30.5" ry="28.5" stroke="none"/>
          <ellipse cx="30.5" cy="28.5" rx="27" ry="25" fill="none"/>
        </g>
        <g id="Rectangle_4-21" data-name="Rectangle 4" transform="translate(124 -7)" fill="#d01e25" stroke="#c5cfd1" stroke-width="7">
          <rect width="61" height="54" stroke="none"/>
          <rect x="3.5" y="3.5" width="54" height="47" fill="none"/>
        </g>
      </g>
      <g id="Group_25" data-name="Group 25" transform="translate(944)">
        <g id="Ellipse_1-22" data-name="Ellipse 1" transform="translate(124 22)" fill="#d01e25" stroke="#c5cfd1" stroke-width="7">
          <ellipse cx="30.5" cy="28.5" rx="30.5" ry="28.5" stroke="none"/>
          <ellipse cx="30.5" cy="28.5" rx="27" ry="25" fill="none"/>
        </g>
        <g id="Rectangle_4-22" data-name="Rectangle 4" transform="translate(124 -7)" fill="#d01e25" stroke="#c5cfd1" stroke-width="7">
          <rect width="61" height="54" stroke="none"/>
          <rect x="3.5" y="3.5" width="54" height="47" fill="none"/>
        </g>
      </g>
      <g id="Group_26" data-name="Group 26" transform="translate(998)">
        <g id="Ellipse_1-23" data-name="Ellipse 1" transform="translate(124 22)" fill="#d01e25" stroke="#c5cfd1" stroke-width="7">
          <ellipse cx="30.5" cy="28.5" rx="30.5" ry="28.5" stroke="none"/>
          <ellipse cx="30.5" cy="28.5" rx="27" ry="25" fill="none"/>
        </g>
        <g id="Rectangle_4-23" data-name="Rectangle 4" transform="translate(124 -7)" fill="#d01e25" stroke="#c5cfd1" stroke-width="7">
          <rect width="61" height="54" stroke="none"/>
          <rect x="3.5" y="3.5" width="54" height="47" fill="none"/>
        </g>
      </g>
      <g id="Group_27" data-name="Group 27" transform="translate(1106)">
        <g id="Ellipse_1-24" data-name="Ellipse 1" transform="translate(124 22)" fill="#d01e25" stroke="#c5cfd1" stroke-width="7">
          <ellipse cx="30.5" cy="28.5" rx="30.5" ry="28.5" stroke="none"/>
          <ellipse cx="30.5" cy="28.5" rx="27" ry="25" fill="none"/>
        </g>
        <g id="Rectangle_4-24" data-name="Rectangle 4" transform="translate(124 -7)" fill="#d01e25" stroke="#c5cfd1" stroke-width="7">
          <rect width="61" height="54" stroke="none"/>
          <rect x="3.5" y="3.5" width="54" height="47" fill="none"/>
        </g>
      </g>
    </g>
  </g>
</svg>
