<svg xmlns="http://www.w3.org/2000/svg" xmlns:xlink="http://www.w3.org/1999/xlink" width="80vw" viewBox="0 0 1280 800">
  <defs>
    <clipPath id="clip-Web_1280_5">
      <rect width="1280" height="800"/>
    </clipPath>
  </defs>
  <g id="Web_1280_5" data-name="Web 1280 – 5" clip-path="url(#clip-Web_1280_5)">
    <rect width="1280" height="800" fill="#fff"/>
    <rect id="Rectangle_1" data-name="Rectangle 1" width="1280" height="800" fill="#022c59"/>
    <text id="Tonystark_Arrow_Helmet" data-name="Tonystark
Arrow
Helmet" transform="translate(94 210)" fill="#e52008" font-size="80" font-family="Marvel-Regular, Marvel"><tspan x="0" y="0">TONYSTARK</tspan><tspan x="0" y="104">ARROW</tspan><tspan x="0" y="208">HELMET</tspan></text>
    <rect id="Rectangle_2" data-name="Rectangle 2" width="42" height="800" transform="translate(852)" fill="#830102"/>
    <g id="_46430" data-name="46430" transform="translate(1471.661 1282.367)">
      <path id="Path_5" data-name="Path 5" d="M435.836-1278.675c-2.6,1.358-6.029,5.19-11.458,12.856-13.015,18.365-28.546,37.809-33.3,41.721a84.28,84.28,0,0,0-7.266,7.346c-2.675,2.914-6.388,6.707-8.264,8.384s-5.949,5.27-9.023,8.025c-9.063,8.144-46.233,39.166-58.809,49.107-4.032,3.194-8.823,7.187-10.66,8.943l-3.314,3.114v-1.517c0-.878.2-3.274.439-5.35.519-4.711.519-13.894,0-16.569-.639-3.234-2-6.468-2.795-6.707-.6-.12-.759-.759-.958-3.513-.16-1.837-.279-4.272-.279-5.43,0-2.236-.559-3.154-2.236-3.553-2.475-.639-3.354,1.317-10.74,23.4-9.5,28.267-13.614,37.289-21.6,47.43-4.312,5.43-14.892,15.89-21.32,21-5.789,4.631-14.333,10.66-14.972,10.66-.2-.04-.559-.519-.759-1.158a24.982,24.982,0,0,0-2.715-4.152c-2.276-2.915-2.6-3.913-1.317-3.913.319,0,.719-.479.838-1.038.319-1.277-.519-3.194-2.356-5.23-2.356-2.635-5.07-6.108-5.07-6.468,0-.2.559-.559,1.2-.8,1-.319,1.2-.6,1.2-1.756,0-1.877-1.6-4.791-4.392-8.065-2.914-3.433-3.633-4.631-2.875-4.911a5.657,5.657,0,0,0,1.517-1.038l1-.839-2.036-4.751c-2-4.671-2-4.751-1.2-5.31,3.673-2.6-5.549-17.008-15.411-24.035a71.546,71.546,0,0,0-15.93-7.945c-4.112-1.4-12.7-3.633-14.173-3.713-.918-.04-.918-.08.2-.4.679-.159,3.553-.758,6.388-1.317,13.774-2.675,20.96-7.187,20.96-13.215,0-2.316-.958-3.274-4.991-4.951-4.312-1.837-7.905-2.435-13.894-2.435-6.108,0-9.622.479-23.236,3.154-11.378,2.236-13.774,2.635-13.774,2.156a53.716,53.716,0,0,1,7.546-2.835,100.413,100.413,0,0,0,21.8-10.22c4.272-2.8,11.219-9.542,12.5-12.257.878-1.8,1.2-5.23.559-6.228-.6-.918-5.47-2.2-9.262-2.4a48.481,48.481,0,0,0-15.77,2.156,249.366,249.366,0,0,0-26.67,10.9l-2.475,1.238,1.6-1.477c.878-.8,3.833-3.154,6.588-5.27,18.166-13.894,23.795-19.763,26.949-28.147,1.757-4.671,1.278-5.869-2.316-6.188-2.356-.16-8.464,1.238-12.616,2.915-7.905,3.234-12.856,6.268-26.39,16.369-10.1,7.466-15.571,11.219-15.571,10.62,0-1.038,5.35-7.825,13.175-16.808,8.7-10.021,14.772-18.6,14.772-21,0-.958-1.637-2.795-2.835-3.154-1.078-.359-4.951.519-7.346,1.637a89.52,89.52,0,0,0-11.458,6.827c-6.867,5.19-20.282,17.327-20.282,18.326a9.446,9.446,0,0,1-2.475,2.435c-1.4,1.118-5.789,5.15-9.781,8.983-7.466,7.187-12.3,11.179-15.73,12.936l-1.956.958-.359-.878c-.2-.519-.679-1.956-1.078-3.274-.918-2.875-1.677-3.274-4.072-2.116-2.875,1.4-6.667,8.184-8.7,15.531a52.127,52.127,0,0,0-1,17.327c1.038,5.789,5.829,16.688,10.54,23.8,2.236,3.393,4.831,6.428,10.221,12.1,6.508,6.827,8.065,8.743,15.371,18.964,11.179,15.69,15.531,22.2,17.327,26.071a235.534,235.534,0,0,1,11.858,32.379c3.513,12.576,7.785,31.82,7.785,35.173a9.111,9.111,0,0,0,.559,3.034c.559,1.358,2.036,9.463,1.757,9.742a8.149,8.149,0,0,1-2.316-.479c-2.795-.759-8.7-.439-13.974.679-2.076.479-5.47,1.2-7.506,1.637l-3.713.8-.679-.839c-.639-.719-.878-.758-3.473-.4-6.827.958-16.888,5.629-21.439,9.941-2.954,2.755-8.783,11.019-9.941,13.974a22.085,22.085,0,0,0-1.158,9.741,16.36,16.36,0,0,0,.6,2.715c.4.6-.519,1.8-5.03,6.587s-6.907,8.224-7.586,10.7a18.721,18.721,0,0,0-.279,4.511c.2,2.795.24,2.915,3.274,7.226,3.194,4.551,6.707,8.264,8.9,9.382l1.238.639.16-3.713c.2-5.11,1.637-7.985,6.069-12.417,2.994-2.954,13.455-10.78,16.569-12.377,2.755-1.4,8.264.04,10.9,2.875,1.437,1.557,8.025,11.658,11.5,17.687a285.488,285.488,0,0,1,20.561,46.312c1.4,4.312,1.8,4.791,2.914,3.434.439-.559.958-1.038,1.2-1.038.4,0,5.07,8.344,4.791,8.584-.08.04-3.074.918-6.707,1.956-9.7,2.715-14.852,5.669-16.968,9.582-.759,1.4-.759,1.4.12,2.355l.878.918-2.2,2.875a59.768,59.768,0,0,0-7.067,12.177,78.03,78.03,0,0,0-4.112,13.255c-.359,2.276-2.2,4.871-5.709,8.264-4.591,4.352-11.139,7.426-14.852,6.907-.759-.12-3.354-.479-5.749-.838-5.03-.679-7.825-.479-10.061.8-2.2,1.2-2.076,2.076.24,1.916l1.8-.12-2.675,2.715c-2.755,2.795-3.513,4.112-3.513,6.148,0,1.677.719,1.437,2.994-1.038,1.837-1.956,2.2-2.2,3.673-2.2a4.611,4.611,0,0,1,4.192,2.675c.679,1.158.639,1.238-.24,2.555-1.4,2.036-5.03,3.753-7.825,3.713-3.593-.04-5.51-1.238-11.977-7.586-3.194-3.074-6.188-5.829-6.667-6.109a8.927,8.927,0,0,0-3.074-.479,4.9,4.9,0,0,0-3.433.838c-1.557,1.118-1.078,1.6,1.8,1.6,2.675,0,3.713.639,5.11,2.994l1.158,1.956-.719,2.316c-.559,1.876-.6,2.515-.2,3.354.679,1.477.24,1.8-1.757,1.158-2.994-.878-5.39-2.555-9.781-6.787a71.11,71.11,0,0,0-6.148-5.35l-1.956-1.357-3.953.439a25.523,25.523,0,0,0-5.43,1.158L.5-823.736l3.593.519c4.751.679,6.308,1.2,7.745,2.715l1.238,1.277-1.2.878c-2.435,1.8-2.795,3.873-1.357,7.266.519,1.2,1.318,1.8,5.789,4.192a49.355,49.355,0,0,1,5.629,3.274c.279.319.04.639-.8,1.078-1,.519-1.757.559-4.432.24-3.473-.439-4.032-.319-5.589,1.357-.878.918-2.555,5.03-2.236,5.39a12.756,12.756,0,0,0,2.755-1.318,12.632,12.632,0,0,1,3.234-1.437c1.278,0,2.954,1.6,3.473,3.234.559,1.956,1.437,2.475,4.112,2.475a9.341,9.341,0,0,0,6.588-2.715,12.628,12.628,0,0,1,8.145-3.274c2.2-.16,3.154-.08,4.152.439,1.637.838,1.916,2.036,1.278,5.47-.958,5.51-.04,11.339,2.4,14.772,1.517,2.116.16,4.471-4.112,7.106-1.357.838-1.477,1-.958,1.517.519.559,1.038.479,4.352-.6a34.032,34.032,0,0,1,6.428-1.437c4.551-.359,7.146-1.916,13.215-7.825,2.875-2.795,5.989-5.589,6.907-6.268a41.628,41.628,0,0,0,4.671-4.392c4.831-5.11,10.939-7.825,18.964-8.344a43.064,43.064,0,0,0,5.03-.559c4.591-1.038,4.352-1.078,6.588,1.757,1.238,1.477,2.475,2.635,3.034,2.755,1.118.2,2.475-1.118,3.753-3.713,1-2,1.437-2.4,2.675-2.4.958,0,2.236,1.4,4.631,5.19,2.316,3.593,4.871,5.15,6.627,4.032.359-.24.679-1.717.958-4.152.279-2.6.6-3.913.958-4.032.559-.24,2.755,1.836,6.667,6.268,2.2,2.555,3.354,3.433,5.27,4.032,1.4.439,2.236-1.916,2.116-5.869-.04-1.8-.12-4.352-.12-5.669l-.04-2.4,1.4.04c.759.04,2.435.2,3.673.359,1.837.24,2.475.16,3.354-.4,1.357-.878,2.715-.6,7.306,1.437a26.139,26.139,0,0,0,5.589,1.837c2.635.319,3.114-.519,2.475-3.913a7.686,7.686,0,0,1-.24-2.755c.479-.759,3.034-.878,5.589-.24,1.4.359,2.635.639,2.755.639a13.7,13.7,0,0,0,1.557-1.916l1.357-1.916,3.713-.679c2.036-.359,3.753-.719,3.793-.759.04-.08.439-1.477.838-3.114l.8-2.994,2.4-.279c6.148-.679,12.456-5.031,15.73-10.859a7.246,7.246,0,0,1,1.637-2.236c.559,0,1.437,1.677,1.916,3.793,1.038,4.392,1.238,4.831,2.316,5.47a15.866,15.866,0,0,0,3.513,1.118,19.259,19.259,0,0,1,3.553,1.078c1.118.6,4.312.519,5.949-.12.918-.359,3.673-4.511,3.234-4.911-.2-.16-1.717-1.437-3.354-2.835l-2.954-2.515.08-6.428c.04-3.553.2-7.825.359-9.582l.24-3.114,2.795.2c2.6.16,3.434.519,11.618,4.631,9.183,4.591,13.774,6.348,19.683,7.466,6.268,1.158,16.09.838,18.006-.559l.878-.679-2.2-3.274c-1.2-1.8-2.2-3.394-2.2-3.473s3.713,1.078,8.3,2.595c12.816,4.312,22.038,6.348,28.586,6.348,2.875,0,10.261-1.118,10.9-1.677.359-.319-.479-1.357-3.394-4.112-2.116-2.036-3.753-3.833-3.593-3.992.12-.16,2.835.719,5.989,1.956,12.9,4.95,24.554,7.226,32.459,6.388l3.194-.359-.08-1.517c-.04-.8,0-1.477.12-1.477s2.076.4,4.272.878c5.51,1.158,17.327,1.278,21.759.2a37.278,37.278,0,0,0,10.1-3.713,30.055,30.055,0,0,1,5.19-2.116c2.156-.479,9.622-1.717,11.538-1.876,4.152-.359,7.985-1.717,9.861-3.474a8.28,8.28,0,0,0,2.316-6.627c-.2-1.318-.479-1.677-1.477-2-1.8-.639-3.713-.559-8.145.359-4.192.878-11.858,1-11.618.2a28.5,28.5,0,0,1,4.472-2.675c3.713-1.956,7.386-4.711,7.386-5.51a14.611,14.611,0,0,0-3.194-1.158,18.607,18.607,0,0,1-3.833-1.437c-.6-.4-.479-.559.759-1.318,1.837-1.158,2.156-2.635.8-3.992a1.835,1.835,0,0,0-1.837-.719c-3.513,1-16.05,3.034-24.434,4.032-21.919,2.515-44.715,3.034-61.284,1.4-5.989-.6-13.814-1.8-20.641-3.154-3.274-.639-6.707-1.278-7.665-1.437a5.366,5.366,0,0,1-2.755-1.277,2.408,2.408,0,0,1-.759-2.6,15.05,15.05,0,0,1,1.4-3.912,68.611,68.611,0,0,0,3.274-9.023l2.076-6.747-.639-2.036c-.639-2.036-.639-2.156.359-5.07.918-2.795,1.916-8.065,1.677-9.143-.04-.359,1.916-.839,6.228-1.557,3.434-.559,6.308-1.118,6.388-1.2s.8-2.236,1.637-4.751a113.83,113.83,0,0,1,7.466-16.409,17.466,17.466,0,0,0,2.076-11.378l-.4-2.316,5.669-8.424c3.234-4.751,5.589-8.624,5.47-8.983a3.517,3.517,0,0,0-.8-1.277c-.519-.639-.319-1,2.4-3.993,3.873-4.272,4.631-5.789,5.07-10.221.479-4.352,3.354-15.491,4.711-18.245.559-1.078,2.116-3.633,3.434-5.589a62.886,62.886,0,0,0,3.713-6.148c1.278-2.515,1.278-2.555.679-4.112s-.6-1.557.519-2.795a48.554,48.554,0,0,1,4.232-3.553c5.949-4.551,7.306-7.665,5.709-13.055-.6-1.956-.6-2.156.08-3.034a34.225,34.225,0,0,1,4.072-3.473c4.472-3.394,5.43-4.871,5.47-8.5.04-1.557.08-3.074.08-3.314a37.8,37.8,0,0,1,4.072-4.711c5.15-5.43,6.029-7.107,5.19-10.221-.4-1.437-.319-1.8.878-4.032a41.6,41.6,0,0,1,5.949-7.346c5.589-5.829,7.745-8.624,8.783-11.3,1.118-3.034,1.078-3.114-1.637-3.673-3.553-.679-3.114-1.358,2.4-3.753q12.337-5.33,17.447-9.662c2.555-2.156,5.31-6.228,5.31-7.9a3.986,3.986,0,0,1,2.515-3.633c3.753-1.916,9.462-7.905,9.462-9.981a3.68,3.68,0,0,0-1.2-1.956l-1.158-1.118,1.677-1.278c.918-.679,3.593-2.515,5.909-4.112,7.865-5.31,12.057-9.542,14.692-14.732,1.038-2.116,1.118-4.631.12-5.629a14.435,14.435,0,0,0-4.312-1.677c-1.956-.519-3.673-1-3.833-1.078-.958-.519,3.513-4.472,10.261-9.1,8.943-6.188,13.015-9.781,15.93-14.173a8.6,8.6,0,0,0,1.437-3.114c0-.878-.12-.958-1.477-.719-10.021,1.757-20.641,6.108-36.89,15.091-14.213,7.865-20.721,10.939-30.622,14.492-4.791,1.677-6.907,2.036-6.308,1.038.359-.559,10.54-6.667,23.995-14.413,27.987-16.129,39.126-23.915,50.9-35.573,9.422-9.3,11.179-12.017,9.782-14.732-.719-1.4-.8-1.437-4.711-.4-3.992,1-8.943,3.473-14.852,7.466-2.635,1.757-6.787,4.352-9.183,5.749-2.435,1.358-5.869,3.474-7.665,4.631-15.371,9.9-38.487,20.681-64.039,29.784-7.426,2.675-8.344,2.954-8.344,2.355,0-.759,12.9-8.384,24.753-14.652,17.407-9.223,20.681-11.179,46.432-28.187,11.3-7.466,18.126-12.377,24.035-17.327,8.983-7.506,17.766-16.768,19.443-20.521,1.357-2.954.2-6.029-2.236-6.029-.958,0-8.224,4.312-14.972,8.9-3.913,2.635-12.1,8.743-30.782,22.877-12.9,9.742-22.557,16.01-31.94,20.721-4.751,2.355-13.175,7.226-22.038,12.656-5.07,3.074-5.909,3.473-5.909,2.715,0-.2,3.913-4.192,8.7-8.863,14.812-14.493,20.162-19.922,24.035-24.474,2.036-2.435,7.107-8.1,11.259-12.616,11.179-12.217,15.211-17.487,18.884-24.594,2.4-4.591,4.631-11.658,4.232-13.175S438.391-1280.032,435.836-1278.675Z" transform="translate(-818.335 187.288)" fill="#e8e8e8"/>
    </g>
    <g id="Group_4" data-name="Group 4" transform="translate(-28)">
      <g id="Ellipse_1" data-name="Ellipse 1" transform="translate(124 22)" fill="#d01e25" stroke="#c5cfd1" stroke-width="7">
        <ellipse cx="30.5" cy="28.5" rx="30.5" ry="28.5" stroke="none"/>
        <ellipse cx="30.5" cy="28.5" rx="27" ry="25" fill="none"/>
      </g>
      <g id="Rectangle_4" data-name="Rectangle 4" transform="translate(124 -7)" fill="#d01e25" stroke="#c5cfd1" stroke-width="7">
        <rect width="61" height="54" stroke="none"/>
        <rect x="3.5" y="3.5" width="54" height="47" fill="none"/>
      </g>
    </g>
    <g id="Group_5" data-name="Group 5" transform="translate(-136)">
      <g id="Ellipse_1-2" data-name="Ellipse 1" transform="translate(124 22)" fill="#d01e25" stroke="#c5cfd1" stroke-width="7">
        <ellipse cx="30.5" cy="28.5" rx="30.5" ry="28.5" stroke="none"/>
        <ellipse cx="30.5" cy="28.5" rx="27" ry="25" fill="none"/>
      </g>
      <g id="Rectangle_4-2" data-name="Rectangle 4" transform="translate(124 -7)" fill="#d01e25" stroke="#c5cfd1" stroke-width="7">
        <rect width="61" height="54" stroke="none"/>
        <rect x="3.5" y="3.5" width="54" height="47" fill="none"/>
      </g>
    </g>
    <g id="Group_6" data-name="Group 6" transform="translate(-82)">
      <g id="Ellipse_1-3" data-name="Ellipse 1" transform="translate(124 22)" fill="#d01e25" stroke="#c5cfd1" stroke-width="7">
        <ellipse cx="30.5" cy="28.5" rx="30.5" ry="28.5" stroke="none"/>
        <ellipse cx="30.5" cy="28.5" rx="27" ry="25" fill="none"/>
      </g>
      <g id="Rectangle_4-3" data-name="Rectangle 4" transform="translate(124 -7)" fill="#d01e25" stroke="#c5cfd1" stroke-width="7">
        <rect width="61" height="54" stroke="none"/>
        <rect x="3.5" y="3.5" width="54" height="47" fill="none"/>
      </g>
    </g>
    <g id="Group_7" data-name="Group 7" transform="translate(134)">
      <g id="Ellipse_1-4" data-name="Ellipse 1" transform="translate(124 22)" fill="#d01e25" stroke="#c5cfd1" stroke-width="7">
        <ellipse cx="30.5" cy="28.5" rx="30.5" ry="28.5" stroke="none"/>
        <ellipse cx="30.5" cy="28.5" rx="27" ry="25" fill="none"/>
      </g>
      <g id="Rectangle_4-4" data-name="Rectangle 4" transform="translate(124 -7)" fill="#d01e25" stroke="#c5cfd1" stroke-width="7">
        <rect width="61" height="54" stroke="none"/>
        <rect x="3.5" y="3.5" width="54" height="47" fill="none"/>
      </g>
    </g>
    <g id="Group_8" data-name="Group 8" transform="translate(26)">
      <g id="Ellipse_1-5" data-name="Ellipse 1" transform="translate(124 22)" fill="#d01e25" stroke="#c5cfd1" stroke-width="7">
        <ellipse cx="30.5" cy="28.5" rx="30.5" ry="28.5" stroke="none"/>
        <ellipse cx="30.5" cy="28.5" rx="27" ry="25" fill="none"/>
      </g>
      <g id="Rectangle_4-5" data-name="Rectangle 4" transform="translate(124 -7)" fill="#d01e25" stroke="#c5cfd1" stroke-width="7">
        <rect width="61" height="54" stroke="none"/>
        <rect x="3.5" y="3.5" width="54" height="47" fill="none"/>
      </g>
    </g>
    <g id="Group_9" data-name="Group 9" transform="translate(80)">
      <g id="Ellipse_1-6" data-name="Ellipse 1" transform="translate(124 22)" fill="#d01e25" stroke="#c5cfd1" stroke-width="7">
        <ellipse cx="30.5" cy="28.5" rx="30.5" ry="28.5" stroke="none"/>
        <ellipse cx="30.5" cy="28.5" rx="27" ry="25" fill="none"/>
      </g>
      <g id="Rectangle_4-6" data-name="Rectangle 4" transform="translate(124 -7)" fill="#d01e25" stroke="#c5cfd1" stroke-width="7">
        <rect width="61" height="54" stroke="none"/>
        <rect x="3.5" y="3.5" width="54" height="47" fill="none"/>
      </g>
    </g>
    <g id="Group_10" data-name="Group 10" transform="translate(296)">
      <g id="Ellipse_1-7" data-name="Ellipse 1" transform="translate(124 22)" fill="#d01e25" stroke="#c5cfd1" stroke-width="7">
        <ellipse cx="30.5" cy="28.5" rx="30.5" ry="28.5" stroke="none"/>
        <ellipse cx="30.5" cy="28.5" rx="27" ry="25" fill="none"/>
      </g>
      <g id="Rectangle_4-7" data-name="Rectangle 4" transform="translate(124 -7)" fill="#d01e25" stroke="#c5cfd1" stroke-width="7">
        <rect width="61" height="54" stroke="none"/>
        <rect x="3.5" y="3.5" width="54" height="47" fill="none"/>
      </g>
    </g>
    <g id="Group_11" data-name="Group 11" transform="translate(188)">
      <g id="Ellipse_1-8" data-name="Ellipse 1" transform="translate(124 22)" fill="#d01e25" stroke="#c5cfd1" stroke-width="7">
        <ellipse cx="30.5" cy="28.5" rx="30.5" ry="28.5" stroke="none"/>
        <ellipse cx="30.5" cy="28.5" rx="27" ry="25" fill="none"/>
      </g>
      <g id="Rectangle_4-8" data-name="Rectangle 4" transform="translate(124 -7)" fill="#d01e25" stroke="#c5cfd1" stroke-width="7">
        <rect width="61" height="54" stroke="none"/>
        <rect x="3.5" y="3.5" width="54" height="47" fill="none"/>
      </g>
    </g>
    <g id="Group_12" data-name="Group 12" transform="translate(242)">
      <g id="Ellipse_1-9" data-name="Ellipse 1" transform="translate(124 22)" fill="#d01e25" stroke="#c5cfd1" stroke-width="7">
        <ellipse cx="30.5" cy="28.5" rx="30.5" ry="28.5" stroke="none"/>
        <ellipse cx="30.5" cy="28.5" rx="27" ry="25" fill="none"/>
      </g>
      <g id="Rectangle_4-9" data-name="Rectangle 4" transform="translate(124 -7)" fill="#d01e25" stroke="#c5cfd1" stroke-width="7">
        <rect width="61" height="54" stroke="none"/>
        <rect x="3.5" y="3.5" width="54" height="47" fill="none"/>
      </g>
    </g>
    <g id="Group_13" data-name="Group 13" transform="translate(458)">
      <g id="Ellipse_1-10" data-name="Ellipse 1" transform="translate(124 22)" fill="#d01e25" stroke="#c5cfd1" stroke-width="7">
        <ellipse cx="30.5" cy="28.5" rx="30.5" ry="28.5" stroke="none"/>
        <ellipse cx="30.5" cy="28.5" rx="27" ry="25" fill="none"/>
      </g>
      <g id="Rectangle_4-10" data-name="Rectangle 4" transform="translate(124 -7)" fill="#d01e25" stroke="#c5cfd1" stroke-width="7">
        <rect width="61" height="54" stroke="none"/>
        <rect x="3.5" y="3.5" width="54" height="47" fill="none"/>
      </g>
    </g>
    <g id="Group_14" data-name="Group 14" transform="translate(350)">
      <g id="Ellipse_1-11" data-name="Ellipse 1" transform="translate(124 22)" fill="#d01e25" stroke="#c5cfd1" stroke-width="7">
        <ellipse cx="30.5" cy="28.5" rx="30.5" ry="28.5" stroke="none"/>
        <ellipse cx="30.5" cy="28.5" rx="27" ry="25" fill="none"/>
      </g>
      <g id="Rectangle_4-11" data-name="Rectangle 4" transform="translate(124 -7)" fill="#d01e25" stroke="#c5cfd1" stroke-width="7">
        <rect width="61" height="54" stroke="none"/>
        <rect x="3.5" y="3.5" width="54" height="47" fill="none"/>
      </g>
    </g>
    <g id="Group_15" data-name="Group 15" transform="translate(404)">
      <g id="Ellipse_1-12" data-name="Ellipse 1" transform="translate(124 22)" fill="#d01e25" stroke="#c5cfd1" stroke-width="7">
        <ellipse cx="30.5" cy="28.5" rx="30.5" ry="28.5" stroke="none"/>
        <ellipse cx="30.5" cy="28.5" rx="27" ry="25" fill="none"/>
      </g>
      <g id="Rectangle_4-12" data-name="Rectangle 4" transform="translate(124 -7)" fill="#d01e25" stroke="#c5cfd1" stroke-width="7">
        <rect width="61" height="54" stroke="none"/>
        <rect x="3.5" y="3.5" width="54" height="47" fill="none"/>
      </g>
    </g>
    <g id="Group_16" data-name="Group 16" transform="translate(620)">
      <g id="Ellipse_1-13" data-name="Ellipse 1" transform="translate(124 22)" fill="#d01e25" stroke="#c5cfd1" stroke-width="7">
        <ellipse cx="30.5" cy="28.5" rx="30.5" ry="28.5" stroke="none"/>
        <ellipse cx="30.5" cy="28.5" rx="27" ry="25" fill="none"/>
      </g>
      <g id="Rectangle_4-13" data-name="Rectangle 4" transform="translate(124 -7)" fill="#d01e25" stroke="#c5cfd1" stroke-width="7">
        <rect width="61" height="54" stroke="none"/>
        <rect x="3.5" y="3.5" width="54" height="47" fill="none"/>
      </g>
    </g>
    <g id="Group_17" data-name="Group 17" transform="translate(512)">
      <g id="Ellipse_1-14" data-name="Ellipse 1" transform="translate(124 22)" fill="#d01e25" stroke="#c5cfd1" stroke-width="7">
        <ellipse cx="30.5" cy="28.5" rx="30.5" ry="28.5" stroke="none"/>
        <ellipse cx="30.5" cy="28.5" rx="27" ry="25" fill="none"/>
      </g>
      <g id="Rectangle_4-14" data-name="Rectangle 4" transform="translate(124 -7)" fill="#d01e25" stroke="#c5cfd1" stroke-width="7">
        <rect width="61" height="54" stroke="none"/>
        <rect x="3.5" y="3.5" width="54" height="47" fill="none"/>
      </g>
    </g>
    <g id="Group_18" data-name="Group 18" transform="translate(566)">
      <g id="Ellipse_1-15" data-name="Ellipse 1" transform="translate(124 22)" fill="#d01e25" stroke="#c5cfd1" stroke-width="7">
        <ellipse cx="30.5" cy="28.5" rx="30.5" ry="28.5" stroke="none"/>
        <ellipse cx="30.5" cy="28.5" rx="27" ry="25" fill="none"/>
      </g>
      <g id="Rectangle_4-15" data-name="Rectangle 4" transform="translate(124 -7)" fill="#d01e25" stroke="#c5cfd1" stroke-width="7">
        <rect width="61" height="54" stroke="none"/>
        <rect x="3.5" y="3.5" width="54" height="47" fill="none"/>
      </g>
    </g>
    <g id="Group_19" data-name="Group 19" transform="translate(782)">
      <g id="Ellipse_1-16" data-name="Ellipse 1" transform="translate(124 22)" fill="#d01e25" stroke="#c5cfd1" stroke-width="7">
        <ellipse cx="30.5" cy="28.5" rx="30.5" ry="28.5" stroke="none"/>
        <ellipse cx="30.5" cy="28.5" rx="27" ry="25" fill="none"/>
      </g>
      <g id="Rectangle_4-16" data-name="Rectangle 4" transform="translate(124 -7)" fill="#d01e25" stroke="#c5cfd1" stroke-width="7">
        <rect width="61" height="54" stroke="none"/>
        <rect x="3.5" y="3.5" width="54" height="47" fill="none"/>
      </g>
    </g>
    <g id="Group_20" data-name="Group 20" transform="translate(674)">
      <g id="Ellipse_1-17" data-name="Ellipse 1" transform="translate(124 22)" fill="#d01e25" stroke="#c5cfd1" stroke-width="7">
        <ellipse cx="30.5" cy="28.5" rx="30.5" ry="28.5" stroke="none"/>
        <ellipse cx="30.5" cy="28.5" rx="27" ry="25" fill="none"/>
      </g>
      <g id="Rectangle_4-17" data-name="Rectangle 4" transform="translate(124 -7)" fill="#d01e25" stroke="#c5cfd1" stroke-width="7">
        <rect width="61" height="54" stroke="none"/>
        <rect x="3.5" y="3.5" width="54" height="47" fill="none"/>
      </g>
    </g>
    <g id="Group_21" data-name="Group 21" transform="translate(728)">
      <g id="Ellipse_1-18" data-name="Ellipse 1" transform="translate(124 22)" fill="#d01e25" stroke="#c5cfd1" stroke-width="7">
        <ellipse cx="30.5" cy="28.5" rx="30.5" ry="28.5" stroke="none"/>
        <ellipse cx="30.5" cy="28.5" rx="27" ry="25" fill="none"/>
      </g>
      <g id="Rectangle_4-18" data-name="Rectangle 4" transform="translate(124 -7)" fill="#d01e25" stroke="#c5cfd1" stroke-width="7">
        <rect width="61" height="54" stroke="none"/>
        <rect x="3.5" y="3.5" width="54" height="47" fill="none"/>
      </g>
    </g>
    <g id="Group_22" data-name="Group 22" transform="translate(890)">
      <g id="Ellipse_1-19" data-name="Ellipse 1" transform="translate(124 22)" fill="#d01e25" stroke="#c5cfd1" stroke-width="7">
        <ellipse cx="30.5" cy="28.5" rx="30.5" ry="28.5" stroke="none"/>
        <ellipse cx="30.5" cy="28.5" rx="27" ry="25" fill="none"/>
      </g>
      <g id="Rectangle_4-19" data-name="Rectangle 4" transform="translate(124 -7)" fill="#d01e25" stroke="#c5cfd1" stroke-width="7">
        <rect width="61" height="54" stroke="none"/>
        <rect x="3.5" y="3.5" width="54" height="47" fill="none"/>
      </g>
    </g>
    <g id="Group_23" data-name="Group 23" transform="translate(836)">
      <g id="Ellipse_1-20" data-name="Ellipse 1" transform="translate(124 22)" fill="#d01e25" stroke="#c5cfd1" stroke-width="7">
        <ellipse cx="30.5" cy="28.5" rx="30.5" ry="28.5" stroke="none"/>
        <ellipse cx="30.5" cy="28.5" rx="27" ry="25" fill="none"/>
      </g>
      <g id="Rectangle_4-20" data-name="Rectangle 4" transform="translate(124 -7)" fill="#d01e25" stroke="#c5cfd1" stroke-width="7">
        <rect width="61" height="54" stroke="none"/>
        <rect x="3.5" y="3.5" width="54" height="47" fill="none"/>
      </g>
    </g>
    <g id="Group_24" data-name="Group 24" transform="translate(1052)">
      <g id="Ellipse_1-21" data-name="Ellipse 1" transform="translate(124 22)" fill="#d01e25" stroke="#c5cfd1" stroke-width="7">
        <ellipse cx="30.5" cy="28.5" rx="30.5" ry="28.5" stroke="none"/>
        <ellipse cx="30.5" cy="28.5" rx="27" ry="25" fill="none"/>
      </g>
      <g id="Rectangle_4-21" data-name="Rectangle 4" transform="translate(124 -7)" fill="#d01e25" stroke="#c5cfd1" stroke-width="7">
        <rect width="61" height="54" stroke="none"/>
        <rect x="3.5" y="3.5" width="54" height="47" fill="none"/>
      </g>
    </g>
    <g id="Group_25" data-name="Group 25" transform="translate(944)">
      <g id="Ellipse_1-22" data-name="Ellipse 1" transform="translate(124 22)" fill="#d01e25" stroke="#c5cfd1" stroke-width="7">
        <ellipse cx="30.5" cy="28.5" rx="30.5" ry="28.5" stroke="none"/>
        <ellipse cx="30.5" cy="28.5" rx="27" ry="25" fill="none"/>
      </g>
      <g id="Rectangle_4-22" data-name="Rectangle 4" transform="translate(124 -7)" fill="#d01e25" stroke="#c5cfd1" stroke-width="7">
        <rect width="61" height="54" stroke="none"/>
        <rect x="3.5" y="3.5" width="54" height="47" fill="none"/>
      </g>
    </g>
    <g id="Group_26" data-name="Group 26" transform="translate(998)">
      <g id="Ellipse_1-23" data-name="Ellipse 1" transform="translate(124 22)" fill="#d01e25" stroke="#c5cfd1" stroke-width="7">
        <ellipse cx="30.5" cy="28.5" rx="30.5" ry="28.5" stroke="none"/>
        <ellipse cx="30.5" cy="28.5" rx="27" ry="25" fill="none"/>
      </g>
      <g id="Rectangle_4-23" data-name="Rectangle 4" transform="translate(124 -7)" fill="#d01e25" stroke="#c5cfd1" stroke-width="7">
        <rect width="61" height="54" stroke="none"/>
        <rect x="3.5" y="3.5" width="54" height="47" fill="none"/>
      </g>
    </g>
    <g id="Group_27" data-name="Group 27" transform="translate(1106)">
      <g id="Ellipse_1-24" data-name="Ellipse 1" transform="translate(124 22)" fill="#d01e25" stroke="#c5cfd1" stroke-width="7">
        <ellipse cx="30.5" cy="28.5" rx="30.5" ry="28.5" stroke="none"/>
        <ellipse cx="30.5" cy="28.5" rx="27" ry="25" fill="none"/>
      </g>
      <g id="Rectangle_4-24" data-name="Rectangle 4" transform="translate(124 -7)" fill="#d01e25" stroke="#c5cfd1" stroke-width="7">
        <rect width="61" height="54" stroke="none"/>
        <rect x="3.5" y="3.5" width="54" height="47" fill="none"/>
      </g>
    </g>
  </g>
</svg>
